<?xml version="1.0" encoding="UTF-8" standalone="no"?>
<svg
   viewBox="0 0 1281.8125 998.961"
   version="1.1"
   id="svg82"
   sodipodi:docname="github_logo.svg"
   width="1281.8125"
   height="998.961"
   inkscape:version="1.2.2 (b0a84865, 2022-12-01)"
   xmlns:inkscape="http://www.inkscape.org/namespaces/inkscape"
   xmlns:sodipodi="http://sodipodi.sourceforge.net/DTD/sodipodi-0.dtd"
   xmlns="http://www.w3.org/2000/svg"
   xmlns:svg="http://www.w3.org/2000/svg">
  <defs
     id="defs86" />
  <sodipodi:namedview
     id="namedview84"
     pagecolor="#ffffff"
     bordercolor="#000000"
     borderopacity="0.25"
     inkscape:showpageshadow="2"
     inkscape:pageopacity="0.0"
     inkscape:pagecheckerboard="0"
     inkscape:deskcolor="#d1d1d1"
     showgrid="false"
     inkscape:zoom="0.17306251"
     inkscape:cx="612.49544"
     inkscape:cy="693.39106"
     inkscape:window-width="1309"
     inkscape:window-height="868"
     inkscape:window-x="0"
     inkscape:window-y="25"
     inkscape:window-maximized="0"
     inkscape:current-layer="svg82" />
  <path
     d="m 825.67277,14.408867 c -62,-26 -282,91.999993 -432,105.999993 -150,14 -252,14 -303.999996,46 -52.000003,32 -60.000003,38 -74.000003,80 -14.0000001,42 335.999999,112 335.999999,112 l 564,236 c 0,0 380.00003,86 360.00003,-6 -20,-92 -78,-142 -138,-304 l -40,-184 z"
     fill="#261e2b"
     id="path2" />
  <path
     d="m 1074.3728,150.40886 9.7,-54.299996 -258.40003,-81.699997 c -28.9,-12.0999995 -92.1,7 -166.6,32.4 33.2,5.499997 75.8,24.299997 81.2,60.999993 0.3,2 -9.3,22 -28,45.3 0,0 -66.1,-69.899996 -129.7,-80.099996 -1.7,0.6 -3.4,1.1 -5.1,1.7 l -56.6,87.799996 102,124.7 158,43.3 219.30003,-76.7 z m -852.80003,-15.5 c -17.1,1.7 -32.9,3.6 -47.5,5.8 3.5,5.6 -1,17.5 -8,29.2 -9.5,16 -33,31 -35,59 -2,28 20,51.5 51,67 21.4,10.7 52.3,29.7 69.4,40.5 3.9,0.9 7.7,1.8 11.5,2.7 z m 993.30003,315.5 -168.2,-19 -51.99999,87 22.99999,52 c 50,-21 87.5,-13.5 101,-11.5 13.5,2 48,12 60.5,-10 12.5,-22 7.1,-11.5 11.6,-21.5 4.5,-10 14.5,-20.5 35,-17 11.7,2 26.4,13.4 32,22 -10.3,-21.8 -29.1,-57 -42.9,-82 z"
     fill="#19121d"
     id="path4" />
  <path
     d="m 693.67277,380.70886 c 17.6,-20.6 33.9,-40.1 50.6,-59.2 62.1,-70.7 142.9,-91.3 227.70004,-58.4 83.59999,32.4 135.49999,110 132.89999,200.3 -3.3,111.6 -46.9,206.9 -126.49999,283.2 -87.50004,83.9 -179.50004,163.1 -269.50004,244.50001 -9.1,8.3 -17.1,11.50003 -28.4,2.2 -103.5,-85.00001 -206.1,-170.70001 -294.5,-272.10001 -65.4,-75.1 -101.9,-161.5 -103.8,-261.4 -1.7,-87.6 52.1,-164.9 135.1,-196.8 83.9,-32.3 162.9,-12.4 224.1,56.9 17.4,19.3 34,39.4 52.3,60.8 z"
     fill="#ea4aaa"
     id="path60" />
  <path
     d="m 695.67277,176.60886 c 23.3,-27.3 45,-53.3 67.3,-78.599996 82.5,-93.7999965 189.7,-121.199997 302.40003,-77.599997 111.1,42.999997 180,146.099993 176.5,265.999993 -4.4,148.2 -62.3,274.8 -168,376.1 -116.20003,111.4 -238.40003,216.6 -357.90003,324.60001 -12.1,11 -22.7,15.30003 -37.7,2.9 -137.4,-112.90001 -273.8,-226.70001 -391.1,-361.40001 -86.8,-99.7 -135.3,-214.5 -137.9,-347.2 -2.2,-116.3 69.2,-218.999996 179.4,-261.399993 111.4,-42.9 216.4,-16.3999995 297.6,75.499997 23,25.999996 45.2,52.799996 69.4,81.099996 z"
     fill="#ea4aaa"
     id="path62" />
  <path
     d="m 1183.4728,106.50886 c 47.9,156.9 -28,323 -131.9,450.6 -38.9,3.3 -93.80003,45.3 -117.80003,73.3 -21.4,24.9 -38.2,55.8 -40,76 -57.1,43.8 -151.8,75.9 -188,78 -140,8 -277,-63 -449,-217 0,0 -4,-14 3,-21 7,-7 29,4 38,-38 9,-42 -8,-94 -34,-144 -29.2,-56.1 -85.1,-89 -97.1,-98 -10.6,-8 -13.4,-9.7 -13.9,-34.1 -2.6,16 -3.8,32.4 -3.5,49.1 2.5,132.7 51.1,247.5 137.9,347.2 117.3,134.7 253.6,248.6 391.1,361.40001 15,12.30003 25.6,8 37.7,-2.9 119.5,-108.00001 241.7,-213.20001 357.90003,-324.60001 105.7,-101.3 163.6,-227.9 168,-376.1 2,-68 -19.4,-130.6 -58.4,-179.9 z"
     fill="#d03592"
     id="path64" />
  <path
     d="m 1173.6728,539.40886 c -13,22 -56,9 -98,14 -42,5 -106.99999,49 -132.00003,91 -25,42 -28,66 -16,71 12,5 28,-6 29,-13 -2,34 82.00003,67 127.00003,73 45,6 140,-20 179,-87 39,-67 12,-125 -24,-193 z m -1078.000026,-376 c -83.000003,36 -102.0000031,99 -94.0000031,183 8,84 110.9999991,181 214.9999991,145 0,27 18,26 26,25 8,-1 20,-16 25,-34 5,-18 10,-83 -10,-124 -20,-41 -110,-77 -109,-105 1,-28 5,-40 5,-40 0,0 -34,-64 -57.999996,-50 z"
     fill="#261e2b"
     id="path66" />
  <path
     d="m 430.37277,56.808864 c -15.9,-22.799997 -77.2,-18.999997 -132.5,19.6 -55.3,38.599996 -83.9,97.399996 -68,120.099996 15.9,22.8 73.6,9.9 129,-28.7 55.3,-38.4 87.3,-88.199996 71.5,-110.999996 z m 440.4,67.699996 c 28.1,-20 39.5,-46.699996 30,-59.999996 -9.5,-13.299997 -39.4,-5 -67.5,15 -28.1,20 -47,51.199996 -37.5,64.499996 9.5,13.3 46.9,0.5 75,-19.5 z"
     fill="#f692ce"
     id="path68" />
</svg>
