<svg xmlns="http://www.w3.org/2000/svg" viewBox="0 0 262.594 49.466">
  <defs>
    <style>
      .cls-1 {
        fill: #60269e;
      }
    </style>
  </defs>
  <g id="hunter-logo" transform="translate(-797 -61.747)">
    <path id="Path_1" data-name="Path 1" class="cls-1" d="M27.509.1V16.5H14.133V.1H0V48.556H14.133v-18.8H27.509v18.8H41.768V.1Z" transform="translate(797 61.773)"/>
    <path id="Path_2" data-name="Path 2" class="cls-1" d="M110.1.1V12.845h12.619V48.556h14.259V12.845H149.6V.1Z" transform="translate(825.831 61.773)"/>
    <path id="Path_3" data-name="Path 3" class="cls-1" d="M144.3.1V48.556h36.089V37.2h-21.83V29.628h17.792V18.271H158.559v-6.94h20.947V.1Z" transform="translate(834.787 61.773)"/>
    <path id="Path_4" data-name="Path 4" class="cls-1" d="M189.785,11.3h6.688c3.281,0,5.678,1.64,5.678,5.047s-2.4,4.543-6.688,4.543h-5.552V11.3Zm4.29,20.316c6.688,0,7.571,2.019,7.571,8.455a35.172,35.172,0,0,0,.757,8.581h14.259V47.141c-1.64,0-1.514-2.145-1.514-8.454,0-9.716-2.776-10.978-7.319-12.871,5.047-1.514,7.193-6.183,7.193-11.862C215.023,4.617,210.354.2,195.842.2H175.4V48.656h14.133V31.62Z" transform="translate(842.931 61.799)"/>
    <path id="Path_5" data-name="Path 5" class="cls-1" d="M64.139.126V29.4c-.126,5.047-1.64,8.454-6.688,8.454-5.8,0-6.688-4.038-6.688-8.833V0H36.5V27.256a30.139,30.139,0,0,0,1.262,10.221c3.786,12.366,15.142,11.988,16.4,11.988a18.9,18.9,0,0,0,2.776-.252,4.462,4.462,0,0,0,.757-.126c.5,0,2.9-.5,6.436-3.281v2.9H78.272V.126Z" transform="translate(806.554 61.747)"/>
    <path id="Path_6" data-name="Path 6" class="cls-1" d="M102.092.1V26.473h.5L87.328.226V.1H73.7V48.556H87.328V22.309l15.016,26.247h13.25V.1Z" transform="translate(816.299 61.773)"/>
  </g>
</svg>
