<?xml version="1.0" encoding="utf-8"?>
<!-- Generator: Adobe Illustrator 23.1.1, SVG Export Plug-In . SVG Version: 6.00 Build 0)  -->
<svg version="1.1" id="Layer_1" xmlns="http://www.w3.org/2000/svg" xmlns:xlink="http://www.w3.org/1999/xlink" x="0px" y="0px"
	 viewBox="0 0 200.1 66.3" style="enable-background:new 0 0 200.1 66.3;" xml:space="preserve">
<style type="text/css">
	.st0{fill:#FCCF22;}
</style>
<g>
	<path class="st0" d="M127.7,49.5v-23H83.6v-6.5c0-2.9,3.2-5.2,7-5.2h37V2.4h-47c-10,0-18.2,6.1-18.2,13.5v22.9h44.1v6.6
		c0,2.9-3.2,5.2-7.1,5.2h-37V63h46.9C119.5,63,127.7,56.9,127.7,49.5z"/>
	<polygon class="st0" points="57.5,50.7 23.9,50.7 23.9,2.4 3,2.4 3,63 57.5,63 	"/>
	<path class="st0" d="M197.6,49.5V2.4h-21v43c0,3-3.2,5.3-7.1,5.3h-16.1V2.5h-20.8V63h46.8C189.4,63,197.6,56.9,197.6,49.5z"/>
</g>
</svg>
