<svg id="Layer_1" data-name="Layer 1" xmlns="http://www.w3.org/2000/svg" width="173.3" height="30" viewBox="0 0 173.3 30">
  <defs>
    <style>
      .cls-1 {
        fill: #fff;
      }
    </style>
  </defs>
  <title>tisch_large_short</title>
  <g>
    <path class="cls-1" d="M107.78,10.14h-5.15V6.71h14v3.43h-5.15V23.63h-3.72V10.14Z"/>
    <path class="cls-1" d="M119.19,6.71h3.72V23.63h-3.72V6.71Z"/>
    <path class="cls-1" d="M125.5,21.16l2.2-2.64a7.76,7.76,0,0,0,5.05,2.05c1.52,0,2.44-.6,2.44-1.6v0c0-.94-0.58-1.43-3.41-2.15-3.41-.87-5.61-1.81-5.61-5.17v0c0-3.07,2.47-5.1,5.92-5.1a9.79,9.79,0,0,1,6.28,2.15l-1.93,2.8A7.94,7.94,0,0,0,132,9.75c-1.43,0-2.18.65-2.18,1.47v0c0,1.11.73,1.47,3.65,2.22,3.43,0.89,5.37,2.13,5.37,5.08v0c0,3.36-2.56,5.25-6.21,5.25A10.77,10.77,0,0,1,125.5,21.16Z"/>
    <path class="cls-1" d="M140.89,15.22v0a8.6,8.6,0,0,1,8.82-8.75A8.73,8.73,0,0,1,156.39,9L154,11.76a6.25,6.25,0,0,0-4.33-1.91,5,5,0,0,0-4.91,5.27v0a5,5,0,0,0,4.91,5.32,6.11,6.11,0,0,0,4.45-2l2.37,2.39a8.65,8.65,0,0,1-6.94,3A8.54,8.54,0,0,1,140.89,15.22Z"/>
    <path class="cls-1" d="M159,6.71h3.72v6.7h6.87V6.71h3.72V23.63h-3.72V16.84h-6.87v6.79H159V6.71Z"/>
  </g>
  <rect class="cls-1" x="95.86" width="0.65" height="30"/>
  <g>
    <g>
      <path class="cls-1" d="M37.78,6.35h3.46l8,10.49V6.35h3.7v17H49.73L41.48,12.55V23.39h-3.7v-17Z"/>
      <path class="cls-1" d="M61.34,16.67L54.79,6.35h4.38l4.06,6.84,4.14-6.84h4.26L65.09,16.6v6.79H61.34V16.67Z"/>
      <path class="cls-1" d="M73.24,16.08V6.35H77V16c0,2.77,1.39,4.21,3.67,4.21s3.68-1.39,3.68-4.09V6.35h3.75V16c0,5.16-2.89,7.69-7.47,7.69S73.24,21.1,73.24,16.08Z"/>
    </g>
    <path class="cls-1" d="M30,30H0V0H30V30h0ZM14,26.49a0.32,0.32,0,0,0,.59,0l1-8.31H13.05L14,26.49h0Zm2.53-8.91V16.32H12.16v1.26h4.33Zm-1.25-1.87c5.49,0.2,5.88-4.8,5.9-6.68,0-.11-0.05-0.12-0.08,0a5.25,5.25,0,0,1-2.86,2.63,5.17,5.17,0,0,0-3,4A0,0,0,0,0,15.24,15.71Zm-0.6-.36c0.87-4.16,4.26-4.27,4.56-5.06,0.47-1.23-.39-3.42-0.61-3.68a0,0,0,0,0-.06,0A7.4,7.4,0,0,1,16.78,9c-0.77.62-3.71,2.8-2.21,6.32A0,0,0,0,0,14.64,15.35Zm-0.6.17c-1.84-3.93,1.84-6.46,2.44-7a0.26,0.26,0,0,0,.06-0.24,9.25,9.25,0,0,0-.94-3.52s-0.06,0-.07,0a11.93,11.93,0,0,1-2.32,3.43c-2.84,3.37-2.19,5.43.77,7.37C14,15.58,14.06,15.56,14,15.51Zm-0.82.14c-3.07-1.84-2.77-4.46-1.49-6.38a0.3,0.3,0,0,0,0-.19A7.36,7.36,0,0,0,11,7.15c-0.06-.08-0.1-0.07-0.1,0a10.56,10.56,0,0,1-1.53,3.35c-1,1.61-1,5.1,3.84,5.24C13.25,15.72,13.26,15.67,13.22,15.65Z"/>
  </g>
</svg>
