<svg width="130px" height="55px" viewBox="0 0 130 55" version="1.1" xmlns="http://www.w3.org/2000/svg"
	xmlns:xlink="http://www.w3.org/1999/xlink">
	<title>Group</title>
	<desc>Created with Sketch.</desc>
	<g id="Symbols" stroke="none" stroke-width="1" fill="none" fill-rule="evenodd">
		<g id="Nav/Inactive" fill="#0D9C90">
			<g id="Header">
				<g id="Nav">
					<g id="Group" transform="translate(0.000000, 0.000000)">
						<path
							d="M77.5664782,50.1027417 L94.9340756,50.1027417 L94.9340756,31.6956075 L77.5664782,31.6956075 L77.5664782,50.1027417 Z M94.8843078,27.2181965 L73.0991414,27.2181965 L73.0991414,54.5801527 L99.4014124,54.5801527 L99.4014124,4.51275997e-13 L94.8843078,4.51275997e-13 L94.8843078,27.2181965 Z M13.8931298,54.5801527 L36.6324803,54.5801527 L36.6324803,50.1027417 L18.3604666,50.1027417 L18.3604666,31.6956075 L36.6324803,31.6956075 L36.6324803,27.2181965 L13.8931298,27.2181965 L13.8931298,54.5801527 Z M46.0770473,50.1027417 L63.5496095,50.1027417 L63.5496095,31.6956075 L46.0770473,31.6956075 L46.0770473,50.1027417 Z M41.610163,54.5801527 L68.0169463,54.5801527 L68.0169463,27.2181965 L41.610163,27.2181965 L41.610163,54.5801527 Z M108.950944,37.8985881 L125.270704,37.8985881 L125.270704,31.6956075 L108.950944,31.6956075 L108.950944,37.8985881 Z M108.950944,50.1027417 L108.950944,42.3764527 L129.738041,42.3764527 L129.738041,27.2181965 L104.48406,27.2181965 L104.48406,54.5801527 L130,54.5801527 L130,50.1027417 L108.950944,50.1027417 L108.950944,50.1027417 Z"
							id="Fill-1"></path>
						<path
							d="M84.922694,19.1446563 C84.922694,20.8939463 85.8128075,21.7338222 86.8615641,21.7338222 C88.3109845,21.7338222 89.1325932,20.5444495 89.1325932,18.5495184 C89.1325932,17.1844942 88.4511492,16.1694183 87.1581184,16.1694183 C85.8312859,16.1694183 84.922694,17.2892529 84.922694,19.1446563 Z M74.2332186,10.9016802 C75.2810739,9.93988675 77.3245042,7.66454539 77.3245042,4.60170744 C77.3245042,3.23713479 76.9053621,2.25727951 75.752496,2.25727951 C74.3733834,2.25727951 74.2332186,3.46471408 74.2332186,7.1741662 L74.2332186,10.9016802 Z M64.5212908,21.7338222 C66.1460298,21.7338222 67.1763081,17.5863703 67.1763081,14.6120354 C67.1763081,14.2444768 67.4386099,14.1401696 67.7351642,14.1401696 C69.167909,14.1401696 70.6358077,13.5274214 72.0672005,12.5295043 L72.0672005,7.54172482 C72.0672005,1.82018278 73.2552204,0.087599965 75.7182436,0.087599965 C78.1280852,0.087599965 79.4909731,1.66169006 79.4909731,4.6540868 C79.4909731,8.68007282 75.6659635,12.4247455 74.2332186,13.6845595 L74.2332186,15.3462495 C74.8799594,14.7520147 75.9273639,13.9997387 77.1325101,13.9997387 C78.9659187,13.9997387 79.7875274,15.0139115 79.7875274,18.3400009 C79.7875274,21.1043668 80.0840816,21.7338222 81.0801075,21.7338222 C81.7958039,21.7338222 82.3902645,21.1395874 82.861236,20.4044702 C82.791379,20.0197528 82.7571265,19.6169736 82.7571265,19.1970356 C82.7571265,16.5541356 84.4679473,13.9997387 87.2807062,13.9997387 C89.8131357,13.9997387 91.2977099,15.8018597 91.2977099,18.4614668 C91.2977099,21.3319461 89.306109,23.9044049 86.7741302,23.9044049 C85.4121438,23.9044049 84.3291347,23.309267 83.6296632,22.3122529 C82.8968405,23.134067 81.9188423,23.9044049 80.6961192,23.9044049 C78.5301011,23.9044049 77.6219599,22.5217704 77.6219599,18.8814048 C77.6219599,16.7464943 77.3425318,16.1694183 76.6962418,16.1694183 C75.9453915,16.1694183 74.8970856,17.2540323 74.2332186,18.0072114 L74.2332186,22.8541084 C74.2332186,23.554005 73.7960489,23.8520255 73.1506603,23.8520255 C72.5043702,23.8520255 72.0672005,23.554005 72.0672005,22.8541084 L72.0672005,15.1195733 C71.2640702,15.6618803 70.2153136,16.1522595 69.2724692,16.274177 C68.8528764,20.4396908 66.7229135,23.9044049 64.346423,23.9044049 C62.81047,23.9044049 62.0064383,22.556991 61.6053238,21.3671667 C61.0982971,22.556991 60.2248591,23.9044049 58.8980265,23.9044049 C55.1775771,23.9044049 55.6309717,16.8169355 55.0027092,16.8169355 C54.4605287,16.8169355 53.0291359,19.5465324 53.0291359,19.5465324 C52.8019879,19.9845322 52.2246535,20.0721322 51.753682,19.8445529 C51.3340892,19.6336808 51.089815,19.2489634 51.247106,18.8123182 C51.247106,18.8123182 53.7448323,13.9816769 55.5615653,13.9816769 C57.674402,13.9816769 57.028112,21.7338222 58.8980265,21.7338222 C60.032865,21.7338222 60.8359953,19.0042254 60.8359953,15.2243321 C60.8359953,14.524887 61.2555881,13.9816769 61.9018781,13.9816769 C62.5481682,13.9816769 63.0024641,14.524887 63.0024641,15.2243321 C63.0024641,18.9861635 63.1421782,21.7338222 64.5212908,21.7338222 Z M33.3610061,15.2076248 C34.4971966,13.4741389 36.8371813,9.46621477 36.8371813,5.65245547 C36.8371813,3.06193486 36.2954514,2.16967954 35.1957668,2.16967954 C33.902736,2.16967954 33.2915998,3.3066729 33.2915998,10.2541629 C33.2915998,12.1276281 33.308726,13.7721594 33.3610061,15.2076248 Z M16.4713827,9.81706618 C16.4713827,10.5693422 15.7543342,11.3739975 14.8993745,11.3739975 C14.0083596,11.3739975 13.4666297,10.7093215 13.4666297,9.88750739 C13.4666297,9.10001079 14.2003537,8.50487289 15.1260718,8.50487289 C15.9296528,8.50487289 16.4713827,9.10001079 16.4713827,9.81706618 Z M5.13516662,38.5164403 C6.4106205,38.5164403 7.05600917,37.3270675 7.05600917,33.6338711 L7.05600917,27.8075703 C5.81661053,29.3997223 3.38874125,32.8996569 3.3535874,35.8216125 C3.3535874,37.7289437 3.94759737,38.5164403 5.13516662,38.5164403 Z M4.52357972,21.7338222 C5.52005623,21.7338222 6.42774673,21.3319461 7.05600917,20.5092289 L7.05600917,17.4644528 C6.42774673,16.5198181 5.46642407,16.1694183 4.66329375,16.1694183 C3.07415934,16.1694183 2.16646884,17.2892529 2.16646884,18.9861635 C2.16646884,20.7891876 3.07415934,21.7338222 4.52357972,21.7338222 Z M7.05600917,14.9443734 C7.09116303,14.2801489 7.51030512,13.9997387 8.13946894,13.9997387 C8.78620969,13.9997387 9.22247801,14.2968561 9.22247801,14.9967528 L9.22247801,22.2413602 C10.5673382,20.4920702 12.8726197,17.4996734 13.7289315,15.0491321 C13.9732057,14.3492355 14.1485243,13.9997387 14.7948143,13.9997387 C15.4397523,13.9997387 15.894499,14.4368355 15.894499,15.1371836 L15.894499,19.6521942 C15.894499,21.4890842 16.313641,21.7338222 17.0644913,21.7338222 C18.5495162,21.7338222 19.7546624,18.1291288 20.0521181,15.3643114 C20.1386506,14.4720561 20.7326606,13.9645181 21.3437968,13.9997387 L24.959686,14.2444768 C26.1130028,14.3140149 26.7764191,14.8924456 26.7764191,16.1522595 L26.7764191,18.3919287 C26.7764191,21.0167669 27.1955612,21.7338222 28.1740101,21.7338222 C29.1871621,21.7338222 30.2174404,20.4216289 31.4568391,17.9367701 C31.2305925,15.8537875 31.1251309,13.0722628 31.1251309,9.34474884 C31.1251309,2.16967954 32.6975898,4.51275997e-13 35.1606129,4.51275997e-13 C37.6051577,4.51275997e-13 39.0027487,2.27443827 39.0027487,5.30160406 C39.0027487,10.7093215 34.4615921,17.0445148 33.588154,18.2338876 C33.8675821,20.5272908 34.4097627,21.7338222 35.440041,21.7338222 C36.8543075,21.7338222 39.0559302,17.8139496 40.4350429,15.4523629 C41.1858931,14.1568768 41.360761,13.9997387 41.7632275,13.9997387 C44.4700742,13.9997387 46.9853774,16.3274594 46.9853774,19.1446563 C46.9853774,21.9446943 44.662519,24.5523737 41.0813329,23.9044049 C40.399889,23.7815843 39.8239067,23.3273288 39.8410329,22.6445909 C39.8590605,21.9799149 40.5053506,21.6119048 41.3436347,21.7338222 C43.8237841,22.1013809 44.8189086,20.7015876 44.8189086,19.2846356 C44.8189086,17.6920321 43.8409104,16.5893563 42.2161714,16.274177 C38.4267664,22.9064877 37.1166093,23.9044049 35.2475962,23.9044049 C33.7107418,23.9044049 32.6281835,23.4320875 31.9467395,20.8939463 C30.9331368,22.5741497 29.6405567,23.9044049 27.9464114,23.9044049 C25.9552611,23.9044049 24.6099502,22.1198942 24.6099502,18.8814048 L24.6099502,16.3798388 L22.094647,16.2217976 C21.5542692,19.9673735 19.3521958,23.9044049 16.907651,23.9044049 C14.9863578,23.9044049 13.763184,22.7141291 13.7109039,19.3198562 C12.4011975,21.4367048 10.7593323,23.2568876 9.22247801,25.3046497 L9.22247801,33.2491537 C9.22247801,38.2717022 7.35346485,40.6870229 5.03060644,40.6870229 C2.9867254,40.6870229 1.18711856,39.0939679 1.18711856,36.119633 C1.18711856,31.7793708 5.22214987,27.1063191 7.05600917,24.6738396 L7.05600917,22.8721702 C6.37546664,23.4492463 5.43262229,23.9044049 4.27930551,23.9044049 C2.0790349,23.9044049 0,21.9446943 0,19.0742151 C0,16.4845975 2.06100728,13.9997387 4.6281399,13.9997387 C5.64174264,13.9997387 6.46290059,14.4016149 7.05600917,14.9443734 L7.05600917,14.9443734 Z"
							id="Fill-2"></path>
					</g>
				</g>
			</g>
		</g>
	</g>
</svg>
