<svg viewBox="0 0 222 32"  version="1.1" xmlns="http://www.w3.org/2000/svg"
	xmlns:xlink="http://www.w3.org/1999/xlink">
	<path
		d="M.889 1.375h12.183c6.444 0 10.603 4.864 10.603 10.518 0 5.654-4.159 10.518-10.603 10.518H7.625v8.07H.889V1.374zm16.015 10.518c0-2.707-1.83-5.036-4.657-5.036H7.625V16.92h4.614c2.835.009 4.665-2.32 4.665-5.027zm32.555 18.591l-1.126-3.532H37.98l-1.125 3.532h-7.192L40.06 1.371h6.195l10.517 29.113H49.46zm-6.28-20.787l-3.575 11.98h7.071l-3.497-11.98zm24.908-2.501h-6.565V1.38H81.43v5.817h-6.616v23.288h-6.736V7.196h.009zm23.825-5.817h12.227c6.443 0 10.602 4.863 10.602 10.518 0 4.073-2.165 7.69-5.782 9.4l5.825 9.187h-7.819l-5.155-8.07h-3.162v8.07h-6.736V1.379zm16.007 10.518c0-2.707-1.83-5.036-4.657-5.036h-4.614v10.063h4.614c2.827.008 4.657-2.32 4.657-5.027zm24.994-5.113v6.608h11.015v5.285h-11.015v6.402h11.015v5.405h-17.751V1.379h17.751v5.405h-11.015zm21.954 9.151c0-7.983 5.74-15.305 15.431-15.305 9.649 0 15.389 7.322 15.389 15.305s-5.74 15.304-15.389 15.304c-9.691 0-15.431-7.321-15.431-15.304zm23.955 0c0-4.787-3.248-9.23-8.524-9.23-5.318 0-8.523 4.452-8.523 9.23 0 4.786 3.205 9.229 8.523 9.229 5.276 0 8.524-4.452 8.524-9.23zm35.586 4.409V1.379h6.693v29.113h-7.028l-10.482-18.716v18.716h-6.737V1.38h7.029l10.525 18.965z">
	</path>
</svg>
