<svg xmlns="http://www.w3.org/2000/svg" viewBox="0 0 1955.15 1870.06"><defs><style>.cls-1{fill:#ed225d;stroke:#ed225d;stroke-width:128px;}.cls-1,.cls-2{stroke-miterlimit:10;}.cls-2{fill:#c0eeff;stroke:#c0eeff;stroke-width:96px;}</style></defs><title>Asset 47</title><g id="Layer_2" data-name="Layer 2"><g id="Layer_3" data-name="Layer 3"><path class="cls-1" d="M977.72,1577.35c-5.79,4.13-11,7.74-16.05,11.44q-140.56,102.14-281.11,204.3c-9.25,6.72-18.72,12.35-30.73,12.91-13,.6-24.05-3.42-34.35-11-25.75-18.91-51.67-37.61-77.52-56.39Q416.37,1650.29,294.79,1562c-2.43-1.76-4.88-3.49-7.19-5.39-17.06-14-22.63-31.8-16.33-52.68,7.88-26.1,16.62-51.94,25.05-77.87q43.32-133.3,86.67-266.58c1.21-3.75,2.11-7.61,3.28-11.88-3.42-2.61-6.5-5.06-9.69-7.38Q232.4,1035.38,88.13,930.7C76,921.9,67.35,911.33,64.59,896.29c-1.82-9.95.87-19.14,3.85-28.34q28.5-87.76,57-175.52,33-101.52,66-203C194.8,479,199.73,469.86,208.5,463c7-5.47,14.67-9.09,23.65-9.5,5.65-.26,11.31-.56,17-.56q173.81-.06,347.62,0H612c1.84-5.11,3.51-9.39,4.93-13.75q54.9-168.89,109.66-337.79c5.71-17.65,15.55-30.92,34.11-35.75,5.68-1.47,11.83-1.55,17.77-1.57q88.41-.15,176.81-.06,109.87,0,219.76,0c31.27,0,44.79,9.77,54.37,39.27l109.71,337.77c.41,1.27.74,2.56,1.18,3.81,2.73,7.8,2.73,7.82,11.4,8,3.33.08,6.66,0,10,0h342.63c4.32,0,8.66-.08,13,.11,23.67,1,38.41,11.91,46,34.47,9.29,27.75,18.26,55.61,27.3,83.44Q1838.55,718.47,1886.4,866c1.84,5.67,3.78,11.47,4.42,17.35,2.13,19.71-5.94,34.67-21.9,46.15-38.37,27.6-76.53,55.5-114.76,83.28q-88.07,64-176.11,128c-2.92,2.13-5.73,4.41-8.91,6.87,1,3.51,1.72,6.7,2.72,9.8q55,169.36,110,338.73c2.14,6.6,4.36,13.45,4.75,20.28,1,18.12-7.29,32-21.73,42.44q-37.58,27.28-75.11,54.61-124,90.1-248,180.2c-8.71,6.33-17.71,11.51-28.92,12.23-13.32.85-24.73-3.2-35.35-11-31.14-22.83-62.45-45.44-93.68-68.13L987.5,1584.19C984.56,1582.06,981.55,1580,977.72,1577.35Zm-331,123.41c3.71-2.59,6.73-4.63,9.68-6.77l218.12-158.51c24.77-18,49.45-36.14,74.4-53.9,18.94-13.47,38.38-13.28,57.54-.11,3,2.07,5.94,4.28,8.9,6.43l283.58,206c3.18,2.31,6.47,4.47,10.07,6.94q137.94-100.21,275-199.83c-1-3.67-1.59-6.57-2.5-9.37q-25.27-77.81-50.6-155.6-30.23-93-60.41-186c-3.1-9.54-5.39-19.09-3.29-29.36,3-14.72,12-24.65,23.73-33.17Q1635.34,983,1779.47,878.08c1.89-1.37,3.68-2.88,5.66-4.1,3.11-1.94,3.51-4.59,2.48-7.77l-1.86-5.69q-49.17-151.35-98.36-302.68c-1.11-3.43-2.56-6.76-4.13-10.87h-13.11q-177.32,0-354.64,0c-5,0-10.06.1-14.89-.87-20.31-4.1-32-17.08-38.26-36.47q-55-170.41-110.54-340.67c-3.66-11.24-3.71-11.27-15.11-11.27q-158.84,0-317.67,0c-11.62,0-11.63,0-15.2,11q-45,138.53-90,277.06c-7.29,22.45-14.5,44.93-21.95,67.34C685.92,531,673.73,542.26,655.14,546c-5.16,1-10.58,1-15.88,1q-177.81.08-355.63.06c-12.37,0-11.39-1.7-15.7,11.56q-49.34,151.82-98.72,303.6c-.91,2.79-1.52,5.67-2.4,9,3.39,2.55,6.51,5,9.71,7.31L463.3,1086.88c3.23,2.34,6.49,4.68,9.5,7.29,10.37,9,16.4,20.46,15.69,34.18a104.35,104.35,0,0,1-5.17,26.22q-54.15,167.57-108.73,335c-.72,2.21-1.4,4.44-2.11,6.66-1.05,3.28-.2,5.81,2.8,7.67,1.7,1,3.23,2.35,4.85,3.52Q508.58,1600.73,637,1694.06C640,1696.19,643,1698.19,646.76,1700.76Z"/><path class="cls-2" d="M977.69,1438.87c-4.54,3.23-8.59,6.06-12.59,9Q854.84,1528,744.6,1608.09c-7.26,5.27-14.68,9.69-24.1,10.13-10.19.47-18.87-2.69-27-8.62-20.2-14.84-40.53-29.5-60.81-44.24L442,1426.79c-1.9-1.38-3.82-2.74-5.64-4.23-13.38-10.94-17.75-25-12.81-41.33,6.18-20.47,13-40.74,19.65-61.08q34-104.55,68-209.1c1-2.94,1.66-6,2.58-9.32-2.68-2-5.1-4-7.6-5.79q-113.1-82.2-226.27-164.31c-9.53-6.9-16.29-15.19-18.45-27-1.44-7.81.67-15,3-22.23q22.35-68.85,44.74-137.68,25.89-79.62,51.74-159.27c2.64-8.14,6.51-15.31,13.38-20.68,5.5-4.28,11.51-7.13,18.56-7.45,4.43-.2,8.87-.44,13.3-.44q136.33,0,272.67,0h12c1.44-4,2.76-7.36,3.87-10.79q43-132.47,86-265c4.47-13.84,12.19-24.25,26.75-28,4.46-1.15,9.28-1.22,13.94-1.23q69.35-.12,138.69,0H1132.5c24.52,0,35.13,7.66,42.64,30.8q43,132.48,86.06,264.95c.33,1,.58,2,.93,3,2.14,6.12,2.14,6.14,8.94,6.31,2.61.06,5.22,0,7.84,0h268.75c3.4,0,6.8-.07,10.19.08,18.57.82,30.13,9.34,36.05,27,7.29,21.76,14.32,43.61,21.42,65.44q37.61,115.72,75.14,231.47c1.44,4.45,3,9,3.46,13.61,1.68,15.45-4.65,27.19-17.17,36.2-30.1,21.65-60,43.53-90,65.32q-69.06,50.19-138.13,100.38c-2.3,1.67-4.5,3.46-7,5.39.76,2.75,1.34,5.25,2.13,7.69q43.15,132.84,86.3,265.7c1.67,5.17,3.42,10.54,3.72,15.9.81,14.22-5.72,25.07-17,33.3q-29.48,21.39-58.92,42.83-97.27,70.66-194.55,141.34c-6.83,5-13.89,9-22.68,9.6-10.45.67-19.4-2.51-27.73-8.61-24.43-17.91-49-35.64-73.49-53.45l-154-111.88C983.05,1442.56,980.69,1441,977.69,1438.87Zm-259.6,96.8c2.9-2,5.27-3.64,7.59-5.32L896.77,1406c19.43-14.12,38.79-28.35,58.36-42.28,14.86-10.57,30.1-10.41,45.13-.09,2.37,1.63,4.66,3.36,7,5l222.43,161.61c2.5,1.81,5.08,3.5,7.9,5.45L1453.32,1379c-.77-2.89-1.25-5.16-2-7.35q-19.81-61-39.69-122.05-23.7-72.93-47.38-145.87c-2.43-7.49-4.23-15-2.58-23,2.36-11.55,9.4-19.34,18.61-26q113.22-82.05,226.27-164.33c1.48-1.07,2.89-2.26,4.44-3.22,2.44-1.52,2.75-3.6,1.94-6.1-.48-1.48-1-3-1.45-4.46q-38.57-118.71-77.15-237.42c-.88-2.69-2-5.3-3.25-8.53h-10.28q-139.1,0-278.18,0a59.78,59.78,0,0,1-11.68-.69c-15.93-3.21-25.1-13.4-30-28.6q-43.17-133.68-86.71-267.22c-2.86-8.82-2.91-8.85-11.85-8.85H853.22c-9.12,0-9.12,0-11.92,8.67L770.68,551.24c-5.72,17.61-11.38,35.25-17.22,52.82-4.66,14-14.22,22.88-28.8,25.78a64.66,64.66,0,0,1-12.46.76q-139.47.06-279,.06c-9.71,0-8.94-1.34-12.32,9.06q-38.7,119.09-77.44,238.14c-.71,2.19-1.19,4.45-1.87,7.06,2.65,2,5.1,3.91,7.61,5.73l224.95,163.49c2.53,1.84,5.09,3.67,7.45,5.72,8.13,7.07,12.86,16.05,12.31,26.81a81.55,81.55,0,0,1-4.06,20.57Q547.42,1238.67,504.59,1370c-.56,1.73-1.1,3.48-1.65,5.22a4.7,4.7,0,0,0,2.2,6c1.33.82,2.53,1.84,3.8,2.76q100.76,73.21,201.52,146.42C712.77,1532.08,715.15,1533.65,718.09,1535.67Z"/></g></g></svg>