<svg xmlns="http://www.w3.org/2000/svg" viewBox="0 0 1740.82 1663.84"><defs><style>.cls-1{fill:#c0eeff;opacity:0.8;}.cls-1,.cls-2{stroke:#fff;stroke-miterlimit:10;stroke-width:8px;}.cls-2{fill:#ed225d;opacity:0.5;}</style></defs><title>Asset 27</title><g id="Layer_2" data-name="Layer 2"><g id="Layer_2-2" data-name="Layer 2"><path class="cls-1" d="M1734.37,779.5Q1673,591.42,1612.07,403.19c-1.69-5.21-3.94-6.7-9.29-6.7q-198.49.24-397,.18c-2.24,0-3.94-.18-5.23-1.25L127.86,400.51a8.21,8.21,0,0,0-.3.84q-61.29,189.42-123,378.7c-1.19,3.66-.51,5.49,2.58,7.73q1.89,1.38,3.79,2.75L1735,782.34A12,12,0,0,0,1734.37,779.5Z"/><path class="cls-2" d="M1409,1022.37Q1570.25,905.16,1731.61,788a8.4,8.4,0,0,0,2.94-3.17L14.38,793.05q117.33,85.07,234.53,170.32c28.42,20.65,56.84,41.32,85.59,62.22l-1.25,3.9,1073-5.1C1407.23,1023.66,1408.1,1023,1409,1022.37Z"/><path class="cls-2" d="M215.76,1423Q376.49,1538.36,537,1654.06c4.45,3.21,7.15,3.07,11.46-.1q159.9-117.6,320-235c1.81-1.33,3.28-2.19,5-2.08l861.89-638.67c-.07-.27-.15-.55-.25-.85q-62.64-189-124.84-378.09c-1.21-3.66-2.84-4.74-6.65-4.72l-4.69,0L213.58,1421.06A11.9,11.9,0,0,0,215.76,1423Z"/><path class="cls-1" d="M334.45,1034.69q-60.7,189.91-121.52,379.79a8.43,8.43,0,0,0-.5,4.29L1594.52,394.63q-144.91.81-289.84,1.41c-35.14.16-70.27.3-105.82.45l-1.3-3.88L335.43,1031.46C335.09,1032.62,334.78,1033.67,334.45,1034.69Z"/><path class="cls-1" d="M1198.55,392q-57.9-179-116.1-357.86c-2.92-9-5.89-18-8.87-27.07h-5.83Q869.51,7.11,671.28,7a8.13,8.13,0,0,0-5,1.22l535.48,1646.11,4-2.86Q1366,1535,1526.36,1418.65c3.83-2.78,4.4-5,3-9.34q-59-180.74-117.66-361.55c-2.4-7.39-4.73-14.79-7.07-22.12l1.72-1.3L1202,396.22C1200.47,395.68,1199.36,394.51,1198.55,392Z"/><path class="cls-2" d="M663.46,12.85Q602.26,201.78,540.9,390.64a11.51,11.51,0,0,1-1.89,3.85l332,1020.72,327.7,238.15L664.36,10.58A16.52,16.52,0,0,0,663.46,12.85Z"/></g></g></svg>