<svg xmlns="http://www.w3.org/2000/svg" viewBox="0 0 1731.8 1650.42"><defs><style>.cls-1,.cls-2,.cls-3,.cls-4{fill:#ed225d;}.cls-1,.cls-4,.cls-5{opacity:0.75;}.cls-2,.cls-3,.cls-6{opacity:0.5;}.cls-3,.cls-4,.cls-5,.cls-6{stroke:#fff;stroke-miterlimit:10;}.cls-5,.cls-6{fill:#c0eeff;}</style></defs><title>Asset 31</title><g id="Layer_2" data-name="Layer 2"><g id="Layer_2-2" data-name="Layer 2"><path class="cls-1" d="M1730.37,773q-61.35-188.09-122.3-376.3c-1.69-5.22-3.94-6.71-9.29-6.7q-198.49.23-397,.18c-2.24,0-3.94-.18-5.23-1.26L123.86,394a8,8,0,0,0-.3.83Q62.27,584.29.55,773.57c-1.19,3.66-.51,5.5,2.58,7.74l3.79,2.75L1731,775.87A12.11,12.11,0,0,0,1730.37,773Z"/><path class="cls-2" d="M1405,1015.89q161.28-117.21,322.64-234.33a8.45,8.45,0,0,0,2.94-3.16L10.38,786.57q117.33,85.06,234.53,170.32c28.42,20.65,56.84,41.32,85.59,62.23l-1.25,3.89,1073-5.1C1403.23,1017.18,1404.1,1016.52,1405,1015.89Z"/><path class="cls-3" d="M211.76,1416.52Q372.49,1531.87,533,1647.58c4.45,3.21,7.15,3.07,11.46-.1q159.9-117.6,320-235c1.81-1.33,3.28-2.18,5-2.08l861.89-638.66c-.07-.28-.15-.56-.25-.86q-62.64-189-124.84-378.09c-1.21-3.66-2.84-4.74-6.65-4.72l-4.69,0L209.58,1414.58A11.56,11.56,0,0,0,211.76,1416.52Z"/><path class="cls-4" d="M330.45,1028.21Q269.75,1218.13,208.93,1408a8.43,8.43,0,0,0-.5,4.29L1590.52,388.15q-144.91.83-289.84,1.41l-105.82.46c-.49-1.46-.9-2.7-1.3-3.88L331.43,1025C331.09,1026.14,330.78,1027.19,330.45,1028.21Z"/><path class="cls-5" d="M1194.55,385.56q-57.9-179-116.1-357.86c-2.92-9-5.89-18-8.87-27.07h-5.83Q865.51.63,667.28.5a8.26,8.26,0,0,0-5,1.22l535.48,1646.11c1.47-1,2.73-1.95,4-2.86q160.29-116.45,320.66-232.8c3.83-2.77,4.4-5,3-9.34q-59-180.74-117.66-361.55c-2.4-7.38-4.73-14.79-7.07-22.12l1.72-1.3L1198,389.75C1196.47,389.2,1195.36,388,1194.55,385.56Z"/><path class="cls-6" d="M659.46,6.37Q598.26,195.3,536.9,384.17A11.45,11.45,0,0,1,535,388l332,1020.72,327.7,238.15L660.36,4.1A16.52,16.52,0,0,0,659.46,6.37Z"/></g></g></svg>