<svg xmlns="http://www.w3.org/2000/svg" viewBox="0 0 1863.5 1794.9"><defs><style>.cls-1,.cls-2,.cls-3,.cls-5{fill:#ed225d;stroke-miterlimit:10;}.cls-1{stroke:#000;stroke-width:128px;}.cls-2,.cls-3,.cls-5{stroke:#fff;stroke-width:64px;}.cls-2,.cls-4{opacity:0.8;}.cls-3{opacity:0.75;}</style></defs><title>Asset 28</title><g id="Layer_2" data-name="Layer 2"><g id="Layer_3" data-name="Layer 3"><path class="cls-1" d="M726.44,64.11h5.94q199.5,0,399-.11c4.55,0,6.53,1.15,8,5.65Q1200.4,258.37,1261.64,447c1.7,5.26,4,6.71,9.31,6.7q198-.23,396-.27c5.37,0,7.3,1.74,8.86,6.58q61.32,189.42,123,378.7c1.51,4.62.56,6.86-3.3,9.65q-160.66,116.37-321.21,232.9c-4.07,3-4.86,5.32-3.31,10.1q61.74,189.27,123.27,378.62c1.29,3.93.5,5.71-2.7,8q-162.43,117.75-324.66,235.78c-3.1,2.26-4.91,1.72-7.65-.27q-161.48-117.36-323-234.68c-3.43-2.5-5.55-2.37-8.9.06Q766.14,1596.2,604.74,1713.26c-1.34,1-2.71,1.9-4.32,3L558,1685.49Q415.45,1582,272.86,1478.59c-3.87-2.8-4.65-5-3.14-9.65q61.53-188.57,122.83-377.19c1.57-4.82,1.16-7.37-3.22-10.55Q228,964.46,66.91,847.43c-2.92-2.11-3.5-3.84-2.36-7.33q62-190.5,123.74-381.09c1.37-4.24,3.14-5.52,7.58-5.52q198.48.21,397,.24c5.44,0,7.56-1.64,9.23-6.8Q663.33,257.5,725,68.19C725.39,67,725.86,65.72,726.44,64.11ZM396.81,1084.59c-.64,2-1.14,3.56-1.65,5.14q-61.61,189.57-123.27,379.13c-1.18,3.63-1.07,5.74,2.4,8.25q160.82,116.57,321.46,233.37c1.57,1.14,3.2,2.19,4.88,3.34l331.23-240.71,331.33,240.8,4.82-3.46q160.29-116.45,320.66-232.8c3.83-2.78,4.41-5,3-9.34q-59-180.74-117.65-361.55c-2.4-7.39-4.73-14.79-7.08-22.12,1.7-1.28,3-2.3,4.35-3.28Q1632.57,964.17,1793.92,847c3.42-2.48,4.07-4.51,2.76-8.54q-61.35-188.09-122.29-376.31c-1.69-5.22-4-6.71-9.3-6.7q-198.49.24-397,.18c-3.67,0-5.9-.47-7.24-4.63q-57.91-179-116.11-357.86c-2.92-9-5.89-18-8.87-27.07h-5.83q-198.22,0-396.47-.13c-4.8,0-6.42,1.57-7.82,5.87Q664.59,260.77,603.21,449.64c-1.46,4.52-3.29,6.1-8.19,6.1q-198.73-.24-397.47-.18c-3.8,0-6.23.3-7.68,4.79Q128.58,649.77,66.87,839c-1.2,3.66-.52,5.5,2.57,7.74q121,87.69,241.78,175.58Z"/><path class="cls-2" d="M187.56,459.14q-61.29,189.42-123,378.7c-1.19,3.66-.51,5.49,2.58,7.73q121,87.69,241.78,175.59c28.42,20.65,56.84,41.32,85.59,62.22l-.71,2.21,534.46,387.25,1.29-.94,331.34,240.8,4.82-3.46q160.29-116.45,320.66-232.8c2.33-1.69,3.45-3.17,3.65-5.06L189,456.28A8.27,8.27,0,0,0,187.56,459.14Z"/><path class="cls-3" d="M1134.89,68.58h-5.83q-198.22,0-396.47-.13c-2.69,0-4.39.49-5.6,1.69L395.45,1086.81l.36.26c-.64,2-1.14,3.56-1.65,5.13q-61.61,189.58-123.27,379.14c-1.18,3.63-1.07,5.74,2.4,8.25Q434.11,1596.16,594.75,1713c1.57,1.14,3.2,2.19,4.88,3.33l.25-.18L1136,72C1135.65,70.88,1135.27,69.74,1134.89,68.58Z"/><g class="cls-4"><path class="cls-5" d="M272.39,1472.33q160.73,115.35,321.2,231.06c4.45,3.21,7.15,3.08,11.46-.09q159.9-117.61,320-235c1.81-1.32,3.28-2.18,5-2.08l861.89-638.66c-.07-.27-.15-.56-.25-.86q-62.62-189-124.84-378.09c-1.21-3.66-2.84-4.74-6.65-4.72l-4.69,0L270.21,1470.4A11.9,11.9,0,0,0,272.39,1472.33Z"/></g><g class="cls-4"><path class="cls-5" d="M1796.68,838.5q-61.35-188.09-122.29-376.31c-1.69-5.22-4-6.71-9.3-6.7q-198.49.24-397,.18c-2.24,0-3.93-.18-5.23-1.26l-1072.71,5.1q-.15.39-.3.84Q128.58,649.77,66.87,839c-1.2,3.66-.52,5.5,2.57,7.74l3.79,2.75,1724.06-8.19A11.94,11.94,0,0,0,1796.68,838.5Z"/></g><g class="cls-4"><path class="cls-5" d="M1260.87,451q-57.91-179-116.11-357.86c-2.92-9-5.89-18-8.87-27.07h-5.83q-198.22,0-396.47-.13a8.13,8.13,0,0,0-5,1.22L1264,1713.31l4-2.86q160.29-116.45,320.66-232.8c3.83-2.78,4.41-5,3-9.34q-59-180.74-117.65-361.55c-2.4-7.39-4.73-14.79-7.08-22.12l1.72-1.3L1264.33,455.22C1262.78,454.68,1261.67,453.51,1260.87,451Z"/></g></g></g></svg>