<svg xmlns="http://www.w3.org/2000/svg" viewBox="0 0 1868.3 1811.27"><defs><style>.cls-1,.cls-2,.cls-3{fill:#ed225d;}.cls-1{stroke:#000;}.cls-1,.cls-2,.cls-3,.cls-4,.cls-5{stroke-miterlimit:10;stroke-width:64px;}.cls-2,.cls-3,.cls-4,.cls-5{stroke:#fff;}.cls-2,.cls-4{opacity:0.75;}.cls-3,.cls-5{opacity:0.5;}.cls-4,.cls-5{fill:#c0eeff;}</style></defs><title>Asset 29</title><g id="Layer_2" data-name="Layer 2"><g id="Layer_3" data-name="Layer 3"><path class="cls-1" d="M748.76,79.18h5.94q199.5,0,399-.1c4.55,0,6.53,1.14,8,5.65Q1222.74,273.45,1284,462.09c1.7,5.27,4,6.71,9.31,6.71q198-.23,396-.27c5.37,0,7.3,1.74,8.86,6.58q61.32,189.42,123,378.7c1.51,4.62.56,6.86-3.3,9.65q-160.66,116.37-321.2,232.9c-4.08,3-4.87,5.32-3.31,10.09q61.74,189.29,123.26,378.62c1.29,3.94.51,5.72-2.7,8q-162.44,117.75-324.66,235.79c-3.1,2.25-4.91,1.72-7.65-.27q-161.47-117.36-323-234.69c-3.43-2.49-5.55-2.37-8.89.07q-161.25,117.26-322.64,234.33c-1.34,1-2.71,1.9-4.32,3q-21.27-15.43-42.44-30.8-142.53-103.5-285.12-206.91c-3.86-2.79-4.64-5-3.14-9.64q61.53-188.57,122.83-377.19c1.57-4.82,1.16-7.38-3.22-10.55Q250.34,979.54,89.23,862.51c-2.92-2.12-3.5-3.84-2.36-7.34q62-190.48,123.74-381.08c1.37-4.24,3.14-5.52,7.58-5.52q198.48.19,397,.24c5.45,0,7.56-1.64,9.23-6.81Q685.65,272.58,747.3,83.27C747.71,82,748.18,80.8,748.76,79.18ZM419.13,1099.67c-.64,2-1.14,3.56-1.65,5.13q-61.61,189.59-123.27,379.14c-1.18,3.63-1.06,5.74,2.4,8.25q160.81,116.57,321.46,233.37c1.57,1.14,3.2,2.19,4.88,3.34l331.23-240.71L1285.52,1729c1.85-1.33,3.34-2.39,4.81-3.46q160.29-116.46,320.66-232.8c3.83-2.78,4.41-5,3-9.35q-59-180.72-117.65-361.55c-2.4-7.38-4.73-14.78-7.07-22.11,1.69-1.28,3-2.3,4.34-3.28q161.3-117.21,322.64-234.33c3.42-2.48,4.07-4.5,2.76-8.54q-61.35-188.09-122.29-376.3c-1.69-5.22-4-6.71-9.3-6.7q-198.48.24-397,.18c-3.67,0-5.9-.47-7.24-4.63q-57.92-179-116.1-357.87c-2.93-9-5.89-18-8.88-27.07h-5.82q-198.24,0-396.48-.13c-4.79,0-6.42,1.57-7.81,5.88Q686.9,275.86,625.53,464.72c-1.46,4.52-3.29,6.1-8.19,6.09q-198.73-.22-397.47-.17c-3.8,0-6.23.29-7.68,4.79q-61.29,189.41-123,378.69c-1.19,3.66-.52,5.5,2.57,7.74q121,87.69,241.78,175.58C362,1058.1,390.38,1078.76,419.13,1099.67Z"/><path class="cls-2" d="M1818,853.57q-61.35-188.09-122.29-376.3c-1.69-5.22-4-6.71-9.3-6.7q-198.48.24-397,.18c-2.23,0-3.93-.18-5.22-1.26l-1072.72,5.1q-.15.39-.3.84-61.29,189.41-123,378.69c-1.19,3.66-.52,5.5,2.57,7.74l3.79,2.75,1724.06-8.19A11.62,11.62,0,0,0,1818,853.57Z"/><path class="cls-3" d="M1492.6,1096.44q161.3-117.21,322.64-234.33a8.57,8.57,0,0,0,3-3.16L98,867.12q117.33,85.07,234.53,170.32c28.43,20.66,56.84,41.32,85.59,62.23l-1.25,3.89,1073-5.09C1490.86,1097.74,1491.73,1097.07,1492.6,1096.44Z"/><path class="cls-3" d="M299.39,1497.07q160.73,115.37,321.2,231.06c4.45,3.21,7.15,3.08,11.46-.09q159.9-117.61,320-235c1.8-1.32,3.28-2.18,5-2.08l861.88-638.66c-.07-.27-.15-.56-.25-.85q-62.62-189-124.84-378.1c-1.2-3.65-2.83-4.74-6.65-4.71l-4.69,0L297.22,1495.14A11.81,11.81,0,0,0,299.39,1497.07Z"/><path class="cls-2" d="M418.08,1108.77q-60.7,189.9-121.52,379.78a8.69,8.69,0,0,0-.5,4.3L1678.16,468.7q-144.93.82-289.85,1.41l-105.82.46c-.48-1.46-.9-2.7-1.29-3.88L419.06,1105.54C418.72,1106.69,418.41,1107.74,418.08,1108.77Z"/><path class="cls-4" d="M1282.19,466.12q-57.92-179-116.1-357.87c-2.93-9-5.89-18-8.88-27.07h-5.82q-198.24,0-396.48-.13a8.28,8.28,0,0,0-5,1.22l535.48,1646.12,4-2.86q160.29-116.46,320.66-232.8c3.83-2.78,4.41-5,3-9.35q-59-180.72-117.65-361.55c-2.4-7.38-4.73-14.78-7.07-22.11l1.71-1.31L1285.65,470.3C1284.1,469.76,1283,468.59,1282.19,466.12Z"/><path class="cls-5" d="M747.1,86.93Q685.9,275.86,624.53,464.72a11.64,11.64,0,0,1-1.88,3.84l332,1020.72,327.7,238.16L748,84.66A16.82,16.82,0,0,0,747.1,86.93Z"/></g></g></svg>