<svg xmlns="http://www.w3.org/2000/svg" viewBox="0 0 1748.32 1668.2"><defs><style>.cls-1,.cls-2{fill:#ed225d;}.cls-1,.cls-2,.cls-3{stroke:#fff;stroke-miterlimit:10;stroke-width:16px;}.cls-1{opacity:0.75;}.cls-2{opacity:0.5;}.cls-3{fill:#c0eeff;opacity:0.9;}</style></defs><title>Asset 42</title><g id="Layer_2" data-name="Layer 2"><g id="Layer_3" data-name="Layer 3"><path class="cls-1" d="M1202.55,393.06q-57.9-179-116.1-357.86c-2.92-9-5.89-18-8.87-27.07h-5.83Q873.51,8.13,675.28,8a8.26,8.26,0,0,0-5,1.22l535.48,1646.11c1.47-1,2.73-1.95,4-2.86Q1370,1536,1530.36,1419.67c3.83-2.77,4.4-5,3-9.34q-59-180.74-117.66-361.55c-2.4-7.38-4.73-14.79-7.07-22.12l1.72-1.3L1206,397.25C1204.47,396.7,1203.36,395.54,1202.55,393.06Z"/><path class="cls-2" d="M131.56,402.37q-61.29,189.42-123,378.7c-1.19,3.66-.51,5.5,2.58,7.74q121,87.68,241.78,175.58c28.42,20.65,56.84,41.32,85.59,62.23-.26.79-.49,1.51-.71,2.21l534.46,387.25,1.29-.94,331.34,240.79c1.85-1.33,3.34-2.38,4.82-3.46Q1370,1536,1530.36,1419.67c2.33-1.69,3.45-3.17,3.65-5.05L133,399.51A8.46,8.46,0,0,0,131.56,402.37Z"/><path class="cls-1" d="M1077.58,8.13h-5.83Q873.51,8.13,675.28,8c-2.69,0-4.39.49-5.6,1.69L338.14,1026.35l.36.27c-.64,2-1.14,3.56-1.65,5.13q-61.61,189.59-123.27,379.14c-1.18,3.63-1.07,5.74,2.39,8.25q160.83,116.55,321.47,233.37c1.57,1.13,3.2,2.19,4.88,3.33l.25-.18L1078.71,11.57Z"/><path class="cls-2" d="M217.58,1422.08a11.56,11.56,0,0,0,2.18,1.94Q380.49,1539.37,541,1655.08c4.45,3.21,7.15,3.07,11.46-.1q159.9-117.6,320-235c1.81-1.33,3.28-2.18,5-2.08l861.89-638.66c-.07-.28-.15-.56-.25-.86q-62.64-189-124.84-378.09c-1.21-3.66-2.84-4.74-6.65-4.72l-4.69,0Z"/><path class="cls-3" d="M1738.37,780.52q-61.35-188.09-122.3-376.3c-1.69-5.22-3.94-6.71-9.29-6.7q-198.49.23-397,.18c-2.24,0-3.94-.18-5.23-1.26l-1072.71,5.1a8,8,0,0,0-.3.83q-61.29,189.42-123,378.7c-1.19,3.66-.51,5.5,2.58,7.74l3.79,2.75L1739,783.37A12.11,12.11,0,0,0,1738.37,780.52Z"/></g></g></svg>