<svg xmlns="http://www.w3.org/2000/svg" viewBox="0 0 1757.21 1685.42"><defs><style>.cls-1,.cls-2{fill:#ed225d;stroke:#fff;stroke-miterlimit:10;stroke-width:16px;}.cls-1{opacity:0.75;}.cls-2{opacity:0.5;}</style></defs><title>Asset 44</title><g id="Layer_2" data-name="Layer 2"><g id="Layer_3" data-name="Layer 3"><path class="cls-1" d="M1208.68,403.14q-57.9-179-116.1-357.86c-2.93-9-5.89-18-8.87-27.07h-5.83q-198.24,0-396.48-.13a8.15,8.15,0,0,0-5,1.22l535.48,1646.11,4-2.86q160.29-116.44,320.66-232.8c3.83-2.78,4.41-5,3-9.34q-59-180.73-117.65-361.55c-2.4-7.39-4.73-14.79-7.07-22.12l1.71-1.3L1212.14,407.32C1210.6,406.78,1209.48,405.61,1208.68,403.14Z"/><path class="cls-2" d="M673.59,24Q612.39,212.88,551,401.74a11.9,11.9,0,0,1-1.89,3.85l332,1020.72,327.7,238.15L674.48,21.68A18,18,0,0,0,673.59,24Z"/><path class="cls-2" d="M137.68,412.45q-61.29,189.42-123,378.7c-1.19,3.66-.52,5.49,2.57,7.73q121,87.69,241.78,175.59c28.43,20.65,56.84,41.32,85.59,62.22-.25.8-.48,1.52-.71,2.21l534.46,387.25,1.3-.94L1211,1666c1.85-1.33,3.34-2.39,4.81-3.46q160.29-116.44,320.66-232.8c2.33-1.69,3.45-3.17,3.66-5.06l-1401-1015.1A8.45,8.45,0,0,0,137.68,412.45Z"/><path class="cls-1" d="M542.84,407.84q-198.75-.24-397.48-.18a13.32,13.32,0,0,0-4,.42l1398.36,1013.2c-.07-.28-.16-.57-.26-.87q-59-180.73-117.65-361.55c-2.38-7.33-4.7-14.68-7-22L546.1,407.48A12.38,12.38,0,0,1,542.84,407.84Z"/><path class="cls-1" d="M1083.71,18.21h-5.83q-198.24,0-396.48-.13c-2.69,0-4.38.49-5.6,1.69L344.26,1036.43l.36.26c-.63,2-1.14,3.56-1.65,5.14Q281.36,1231.42,219.7,1421c-1.18,3.62-1.06,5.74,2.4,8.24q160.81,116.57,321.47,233.37c1.56,1.14,3.19,2.2,4.87,3.34l.25-.18L1084.84,21.65C1084.46,20.5,1084.08,19.36,1083.71,18.21Z"/><path class="cls-2" d="M1208.68,403.14q-57.9-179-116.1-357.86-3.18-9.76-6.41-19.57l-534,1637.49,327.49-238,.33.24L1212,407.28C1210.54,406.72,1209.46,405.56,1208.68,403.14Z"/><path class="cls-1" d="M1744.49,790.6q-61.35-188.08-122.29-376.31c-1.69-5.21-4-6.7-9.3-6.7q-198.48.24-397,.18c-2.23,0-3.93-.18-5.22-1.25L138,411.61q-.15.39-.3.84-61.29,189.42-123,378.7c-1.19,3.66-.52,5.49,2.57,7.73L21,801.63l1724.06-8.19A11.46,11.46,0,0,0,1744.49,790.6Z"/><path class="cls-2" d="M1419.1,1033.46q161.28-117.19,322.63-234.32a8.52,8.52,0,0,0,3-3.17L24.5,804.15Q141.83,889.22,259,974.47c28.43,20.65,56.84,41.32,85.59,62.22l-1.25,3.9,1073-5.1C1417.35,1034.76,1418.22,1034.1,1419.1,1033.46Z"/><path class="cls-2" d="M225.88,1434.09q160.72,115.37,321.2,231.07c4.45,3.21,7.15,3.07,11.46-.1q159.9-117.6,320-235c1.8-1.33,3.28-2.19,5-2.08l861.88-638.67c-.07-.27-.15-.55-.25-.85q-62.62-189-124.84-378.09c-1.2-3.66-2.83-4.74-6.65-4.72l-4.68,0L223.71,1432.16A11.81,11.81,0,0,0,225.88,1434.09Z"/><path class="cls-1" d="M344.57,1045.79q-60.7,189.92-121.51,379.79a8.56,8.56,0,0,0-.51,4.29L1604.65,405.73q-144.93.81-289.85,1.41c-35.13.16-70.27.3-105.82.45-.48-1.46-.9-2.69-1.29-3.88L345.55,1042.56C345.21,1043.72,344.9,1044.76,344.57,1045.79Z"/></g></g></svg>