<svg xmlns="http://www.w3.org/2000/svg" viewBox="0 0 1757.21 1684.9"><defs><style>.cls-1{fill:#c0eeff;opacity:0.9;}.cls-1,.cls-2{stroke:#fff;stroke-miterlimit:10;stroke-width:16px;}.cls-2{fill:#ed225d;opacity:0.75;}</style></defs><title>Asset 41</title><g id="Layer_2" data-name="Layer 2"><g id="Layer_2-2" data-name="Layer 2"><path class="cls-1" d="M1744.49,790.08Q1683.14,602,1622.2,413.78c-1.69-5.22-4-6.71-9.3-6.71q-198.48.24-397,.19c-2.23,0-3.93-.18-5.22-1.26L138,411.09c-.1.27-.2.54-.3.84q-61.29,189.42-123,378.7c-1.19,3.66-.52,5.49,2.57,7.73L21,801.12l1724.06-8.2A11.65,11.65,0,0,0,1744.49,790.08Z"/><path class="cls-2" d="M1419.1,1033q161.28-117.21,322.63-234.33a8.57,8.57,0,0,0,3-3.16L24.5,803.63Q141.83,888.7,259,974c28.43,20.65,56.84,41.32,85.59,62.23l-1.25,3.89,1073-5.1C1417.35,1034.24,1418.22,1033.58,1419.1,1033Z"/><path class="cls-2" d="M225.88,1433.58q160.72,115.35,321.2,231.06c4.45,3.21,7.15,3.07,11.46-.1q159.9-117.6,320-235c1.8-1.33,3.28-2.18,5-2.08l861.88-638.66c-.07-.28-.15-.56-.25-.86q-62.62-189-124.84-378.09c-1.2-3.66-2.83-4.74-6.65-4.72l-4.68,0L223.71,1431.64A11.47,11.47,0,0,0,225.88,1433.58Z"/><path class="cls-1" d="M344.57,1045.27q-60.7,189.92-121.51,379.79a8.56,8.56,0,0,0-.51,4.29L1604.65,405.21q-144.93.81-289.85,1.41l-105.82.46c-.48-1.46-.9-2.7-1.29-3.89L345.55,1042C345.21,1043.2,344.9,1044.25,344.57,1045.27Z"/><path class="cls-1" d="M1208.68,402.62q-57.9-179-116.1-357.86c-2.93-9-5.89-18-8.87-27.07h-5.83q-198.24,0-396.48-.13c-2.3,0-3.87.36-5,1.22l535.48,1646.11c1.47-1.05,2.74-2,4-2.86q160.29-116.44,320.66-232.8c3.83-2.77,4.41-5,3-9.34q-59-180.73-117.65-361.55c-2.4-7.38-4.73-14.79-7.07-22.12.62-.46,1.18-.89,1.71-1.3L1212.14,406.8C1210.6,406.26,1209.48,405.1,1208.68,402.62Z"/><path class="cls-2" d="M673.59,23.43Q612.39,212.36,551,401.23a11.84,11.84,0,0,1-1.89,3.84l332,1020.72,327.7,238.15L674.48,21.16A18,18,0,0,0,673.59,23.43Z"/></g></g></svg>