<svg xmlns="http://www.w3.org/2000/svg" viewBox="0 0 1794.24 1727.02"><defs><style>.cls-1,.cls-2,.cls-3{fill:#ed225d;stroke-miterlimit:10;stroke-width:32px;}.cls-1{stroke:#000;}.cls-2,.cls-3{stroke:#fff;}.cls-2{opacity:0.75;}.cls-3{opacity:0.5;}</style></defs><title>Asset 20</title><g id="Layer_2" data-name="Layer 2"><g id="Layer_3" data-name="Layer 3"><path class="cls-1" d="M699.76,36.86h5.94q199.49,0,399-.11c4.55,0,6.53,1.14,8,5.65q61,188.72,122.29,377.37c1.7,5.26,4,6.71,9.31,6.7q198-.23,396-.27c5.38,0,7.3,1.74,8.87,6.58q61.31,189.42,123,378.7c1.51,4.62.56,6.86-3.3,9.65Q1608.18,937.5,1447.63,1054c-4.08,3-4.87,5.32-3.31,10.1q61.74,189.27,123.27,378.61c1.28,3.94.5,5.72-2.7,8q-162.44,117.74-324.67,235.78c-3.1,2.25-4.91,1.72-7.65-.27q-161.47-117.36-323-234.69c-3.43-2.49-5.54-2.37-8.89.07Q739.46,1568.95,578.06,1686c-1.34,1-2.71,1.9-4.33,3l-42.44-30.8q-142.53-103.5-285.12-206.9c-3.86-2.8-4.64-5-3.14-9.65q61.53-188.57,122.83-377.19c1.58-4.82,1.16-7.38-3.22-10.55Q201.33,937.21,40.22,820.18c-2.92-2.12-3.5-3.84-2.36-7.34q62-190.48,123.74-381.08c1.38-4.24,3.15-5.52,7.58-5.52q198.49.19,397,.24c5.44,0,7.55-1.64,9.23-6.8Q636.65,230.24,698.3,40.94C698.7,39.69,699.18,38.47,699.76,36.86ZM370.13,1057.34l-1.66,5.14Q306.88,1252,245.21,1441.61c-1.19,3.63-1.07,5.74,2.39,8.25q160.83,116.57,321.47,233.37c1.57,1.14,3.2,2.19,4.87,3.34l331.23-240.71,331.34,240.8,4.82-3.46q160.29-116.46,320.65-232.8c3.84-2.78,4.41-5,3-9.34q-59-180.74-117.65-361.56c-2.4-7.38-4.73-14.78-7.07-22.11,1.7-1.28,3-2.3,4.35-3.28q161.28-117.21,322.63-234.32c3.42-2.48,4.08-4.51,2.76-8.54q-61.34-188.1-122.29-376.31c-1.69-5.22-3.94-6.71-9.3-6.7q-198.48.24-397,.18c-3.67,0-5.9-.47-7.25-4.63q-57.9-179-116.1-357.86c-2.92-9-5.89-18-8.87-27.07h-5.83q-198.24,0-396.48-.14c-4.79,0-6.42,1.58-7.81,5.88q-61.2,188.93-122.56,377.79c-1.47,4.52-3.3,6.1-8.19,6.09q-198.73-.23-397.48-.17c-3.79,0-6.22.29-7.68,4.79q-61.29,189.4-123,378.69c-1.19,3.66-.52,5.5,2.57,7.74q121,87.69,241.79,175.58Z"/><path class="cls-2" d="M1769,811.25q-61.34-188.1-122.29-376.31c-1.69-5.22-3.94-6.71-9.3-6.7q-198.48.24-397,.18c-2.24,0-3.94-.18-5.23-1.26l-1072.71,5.1c-.11.26-.21.54-.31.84q-61.29,189.4-123,378.69c-1.19,3.66-.52,5.5,2.57,7.74l3.8,2.75,1724.05-8.19A11.46,11.46,0,0,0,1769,811.25Z"/><path class="cls-3" d="M1443.6,1054.11q161.28-117.21,322.63-234.32a8.67,8.67,0,0,0,3-3.17L49,824.79q117.33,85.07,234.53,170.32l85.59,62.23c-.48,1.47-.87,2.71-1.26,3.9l1073-5.1C1441.86,1055.41,1442.73,1054.75,1443.6,1054.11Z"/><path class="cls-3" d="M250.38,1454.74Q411.1,1570.11,571.59,1685.8c4.44,3.21,7.14,3.08,11.46-.09q159.89-117.6,320-235c1.8-1.32,3.28-2.18,5-2.07L1769.86,810c-.08-.27-.16-.56-.26-.85Q1707,620.16,1644.76,431c-1.2-3.65-2.83-4.74-6.65-4.71l-4.68,0L248.21,1452.81A12.15,12.15,0,0,0,250.38,1454.74Z"/><path class="cls-2" d="M369.08,1066.44q-60.72,189.9-121.52,379.78a8.6,8.6,0,0,0-.51,4.3L1629.15,426.37q-144.92.83-289.85,1.41l-105.81.46c-.49-1.46-.91-2.7-1.3-3.88L370.06,1063.21C369.71,1064.37,369.4,1065.41,369.08,1066.44Z"/><path class="cls-2" d="M1233.18,423.79q-57.9-179-116.1-357.86c-2.92-9-5.89-18-8.87-27.07h-5.83q-198.24,0-396.48-.14a8.23,8.23,0,0,0-5,1.22l535.47,1646.12,4-2.86q160.29-116.46,320.65-232.8c3.84-2.78,4.41-5,3-9.34q-59-180.74-117.65-361.56c-2.4-7.38-4.73-14.78-7.07-22.11l1.72-1.3L1236.64,428C1235.1,427.43,1234,426.26,1233.18,423.79Z"/><path class="cls-3" d="M698.09,44.6q-61.2,188.93-122.56,377.79a11.64,11.64,0,0,1-1.89,3.84L905.68,1447l327.7,238.16L699,42.33A16.82,16.82,0,0,0,698.09,44.6Z"/></g></g></svg>