<svg xmlns="http://www.w3.org/2000/svg" viewBox="0 0 1763.34 1689.08"><defs><style>.cls-1{fill:none;stroke:#ed225d;stroke-miterlimit:10;stroke-width:32px;}</style></defs><title>Asset 38</title><g id="Layer_2" data-name="Layer 2"><g id="Layer_3" data-name="Layer 3"><path class="cls-1" d="M761,358.6h3.46q116.29,0,232.6-.06c2.65,0,3.81.67,4.66,3.3q35.6,110,71.29,220c1,3.07,2.31,3.92,5.43,3.91q115.43-.13,230.85-.15c3.13,0,4.25,1,5.16,3.83q35.74,110.43,71.73,220.78c.87,2.69.32,4-1.93,5.62Q1290.61,883.67,1197,951.6c-2.38,1.72-2.84,3.1-1.93,5.89q36,110.34,71.86,220.72c.75,2.3.29,3.34-1.58,4.69q-94.69,68.65-189.27,137.46c-1.81,1.31-2.86,1-4.46-.16q-94.14-68.42-188.3-136.81c-2-1.46-3.23-1.39-5.18,0q-94,68.37-188.09,136.61c-.78.57-1.58,1.11-2.52,1.77l-24.75-18q-83.09-60.35-166.21-120.63c-2.26-1.63-2.71-2.93-1.83-5.62q35.87-109.93,71.6-219.9c.92-2.81.68-4.3-1.88-6.15q-94-68.06-188-136.28c-1.7-1.23-2-2.24-1.38-4.28q36.18-111,72.14-222.16c.8-2.48,1.83-3.22,4.42-3.22q115.71.12,231.43.14c3.17,0,4.41-1,5.38-4Q724.23,471.35,760.17,361C760.4,360.26,760.68,359.54,761,358.6ZM568.85,953.53l-1,3Q532,1067,496,1177.55c-.69,2.12-.62,3.35,1.4,4.81q93.75,68,187.41,136.05c.91.67,1.86,1.28,2.84,1.95L880.77,1180l193.17,140.38,2.8-2q93.45-67.89,186.94-135.71c2.24-1.62,2.57-2.92,1.74-5.45q-34.37-105.36-68.58-210.78c-1.4-4.3-2.76-8.62-4.13-12.89,1-.75,1.76-1.34,2.54-1.91q94-68.34,188.09-136.61c2-1.45,2.37-2.63,1.61-5q-35.76-109.65-71.3-219.38c-1-3-2.3-3.91-5.42-3.91q-115.71.15-231.43.11c-2.14,0-3.44-.28-4.22-2.7q-33.76-104.34-67.69-208.63c-1.7-5.24-3.43-10.48-5.17-15.78h-3.4q-115.56,0-231.14-.08c-2.79,0-3.74.92-4.55,3.43q-35.68,110.13-71.45,220.24c-.86,2.64-1.92,3.56-4.78,3.56q-115.86-.13-231.72-.11c-2.21,0-3.63.18-4.48,2.8Q412.47,700,376.5,810.38c-.7,2.13-.31,3.2,1.49,4.51Q448.52,866,519,917.25Z"/><path class="cls-1" d="M1746.25,791.37a12.11,12.11,0,0,0-.61-2.85q-61.35-188.09-122.3-376.3c-1.17-3.63-2.62-5.46-5.2-6.23l-2.41-7.33c-1.21-3.66-2.84-4.74-6.65-4.72l-4.69,0-15.62,11.58q-185.85.18-371.7.16a11.07,11.07,0,0,1-4-.52l-.32-.14-.26-.13-.26-.16-.27-.19a6.75,6.75,0,0,1-2.19-3.5q-57.9-179-116.1-357.86c-2.92-9-5.89-18-8.87-27.07H1079q-198.24,0-396.47-.13a8.26,8.26,0,0,0-5,1.22l.55,1.7A5.23,5.23,0,0,0,676,20.16L549.61,407.58l-407.19,1.94L138,406.3a8.46,8.46,0,0,0-1.46,2.86C95.65,535.44,13,793.36,16.08,795.6q121,87.67,241.79,175.58c28.42,20.65,56.83,41.32,85.59,62.23l-.71,2.21,1.66,1.2h0l.36.26c-.64,2-1.14,3.56-1.65,5.14q-61.29,188.63-122.65,377.23l-1.3,1a8.77,8.77,0,0,0,.74.76l-.06.18c-1.18,3.63-1.07,5.74,2.39,8.25Q383.07,1546.18,543.71,1663c1.57,1.14,3.2,2.19,4.88,3.34l.25-.18,3.89-12c.41-.26.84-.55,1.28-.87q159.15-117.06,318.47-233.88l4.73,3.43,1.29-.94,331.34,240.79,2.39-1.71.76,2.32c1.47-1,2.73-1.95,4-2.86q160.29-116.45,320.66-232.8c3.83-2.77,4.4-5,3-9.34q-59-180.74-117.66-361.55c-2.4-7.38-4.73-14.79-7.07-22.12l1.72-1.3-4.26-13.1,308.74-228.78ZM1374.86,812l-181.5,134.48,2.51,7.7-1,.77c1.38,4.31,2.75,8.66,4.16,13q34.55,106.27,69.16,212.54c.83,2.55.49,3.86-1.76,5.49q-94.31,68.34-188.5,136.85l-2.34,1.68-.44-1.36-1.41,1L879,1182.56l-.77.55-2.77-2q-93.61,68.75-187.22,137.48c-.26.2-.5.36-.75.52l-2.29,7-.14.11c-1-.68-1.95-1.3-2.87-2q-94.47-68.61-189-137.18c-2-1.48-2.11-2.72-1.41-4.85l0-.11a5.88,5.88,0,0,1-.43-.44l.76-.57q36.11-110.86,72.1-221.75l1-3-.21-.16h0l-1-.71.42-1.3-50.31-36.58Q443.07,866,372,814.38c-1.82-1.32-2.22-2.4-1.51-4.55q36.24-111.29,72.3-222.62a5,5,0,0,1,.86-1.68l2.61,1.89,239.37-1.14,74.27-227.74a3,3,0,0,1,1.24-.73l-.33-1a4.86,4.86,0,0,1,3-.72q116.54.15,233.07.08h3.43c1.75,5.35,3.49,10.63,5.21,15.91q34.17,105.18,68.25,210.37a3.94,3.94,0,0,0,1.28,2l.17.12.15.09.15.08.19.08a6.44,6.44,0,0,0,2.32.3q109.26,0,218.5-.09l9.19-6.8,2.75,0c2.24,0,3.2.63,3.91,2.77l1.42,4.32c1.51.45,2.37,1.52,3.06,3.66q35.81,110.64,71.89,221.21a7.65,7.65,0,0,1,.36,1.67Z"/><line class="cls-1" x1="142.42" y1="409.52" x2="443.64" y2="585.53"/><line class="cls-1" x1="370.48" y1="805.92" x2="16.08" y2="795.6"/><line class="cls-1" x1="493.18" y1="1187.08" x2="222.24" y2="1429.61"/><line class="cls-1" x1="552.73" y1="1654.19" x2="682.15" y2="1324.26"/><line class="cls-1" x1="1209.84" y1="1662.72" x2="1077.92" y2="1322.79"/><line class="cls-1" x1="1540.62" y1="1418.33" x2="1268.18" y2="1180.45"/><line class="cls-1" x1="1722.09" y1="791.48" x2="1388.7" y2="810.22"/><line class="cls-1" x1="1618.14" y1="405.99" x2="1313.75" y2="585.35"/><line class="cls-1" x1="1079.02" y1="16.13" x2="1000.26" y2="356.17"/><line class="cls-1" x1="675.95" y1="20.16" x2="759.89" y2="358.54"/><polyline class="cls-1" points="1073.72 582.45 1137.08 498.02 1209.83 401.06"/><polyline class="cls-1" points="564.01 955.47 461.12 992.43 343.46 1033.41"/><polyline class="cls-1" points="879.05 1182.56 878.96 1294.13 877.21 1422.87"/><polyline class="cls-1" points="1193.36 946.44 1296.68 983.4 1417.61 1033.36"/><polyline class="cls-1" points="549.61 407.58 622.31 503.1 685.62 586.28"/></g></g></svg>