<svg xmlns="http://www.w3.org/2000/svg" viewBox="0 0 1757.21 1684.9"><defs><style>.cls-1,.cls-2,.cls-3{fill:#ed225d;}.cls-1{stroke:#000;}.cls-1,.cls-2,.cls-3,.cls-4,.cls-5{stroke-miterlimit:10;stroke-width:16px;}.cls-2,.cls-3,.cls-4,.cls-5{stroke:#fff;}.cls-2,.cls-4{opacity:0.75;}.cls-3,.cls-5{opacity:0.5;}.cls-4,.cls-5{fill:#c0eeff;}</style></defs><title>Asset 21</title><g id="Layer_2" data-name="Layer 2"><g id="Layer_3" data-name="Layer 3"><path class="cls-1" d="M675.25,15.69h5.94q199.5,0,399-.11c4.55,0,6.54,1.15,8,5.66Q1149.22,210,1210.45,398.6c1.7,5.27,4,6.71,9.31,6.71q198-.24,396-.27c5.37,0,7.3,1.74,8.86,6.58q61.32,189.4,123,378.69c1.51,4.63.56,6.86-3.3,9.66q-160.66,116.37-321.2,232.89c-4.08,3-4.87,5.32-3.31,10.1q61.74,189.27,123.27,378.62c1.28,3.94.5,5.72-2.71,8q-162.44,117.75-324.66,235.78c-3.1,2.26-4.91,1.73-7.65-.26q-161.47-117.37-323-234.69c-3.43-2.5-5.55-2.37-8.89.06q-161.25,117.27-322.64,234.33c-1.34,1-2.71,1.91-4.32,3q-21.27-15.44-42.44-30.8-142.53-103.5-285.12-206.91c-3.86-2.8-4.64-5-3.14-9.65Q280.06,1232,341.36,1043.33c1.57-4.82,1.16-7.37-3.22-10.54Q176.83,916,15.72,799c-2.92-2.12-3.5-3.84-2.36-7.34Q75.4,601.2,137.1,410.6c1.37-4.25,3.14-5.53,7.58-5.52q198.48.19,397,.24c5.45,0,7.56-1.64,9.23-6.81Q612.14,209.09,673.79,19.78C674.2,18.53,674.68,17.3,675.25,15.69ZM345.62,1036.18c-.63,2-1.14,3.55-1.65,5.13Q282.36,1230.9,220.7,1420.45c-1.18,3.63-1.06,5.74,2.4,8.25q160.81,116.55,321.47,233.37c1.56,1.13,3.19,2.19,4.87,3.33l331.23-240.71L1212,1665.49c1.85-1.33,3.34-2.38,4.81-3.46q160.29-116.44,320.66-232.8c3.83-2.77,4.41-5,3-9.34q-59-180.73-117.65-361.55c-2.4-7.38-4.73-14.79-7.07-22.12,1.69-1.28,3-2.3,4.35-3.27q161.28-117.21,322.63-234.33c3.42-2.48,4.07-4.51,2.76-8.54Q1684.14,602,1623.2,413.78c-1.69-5.22-4-6.71-9.3-6.71q-198.48.24-397,.19c-3.67,0-5.89-.48-7.24-4.64q-57.9-179-116.1-357.86c-2.93-9-5.89-18-8.87-27.07h-5.83q-198.24,0-396.48-.13c-4.79,0-6.42,1.57-7.81,5.87Q613.39,212.36,552,401.23c-1.47,4.51-3.3,6.09-8.19,6.09q-198.75-.22-397.48-.18c-3.8,0-6.23.3-7.68,4.79q-61.29,189.42-123,378.7c-1.19,3.66-.52,5.49,2.57,7.73Q139.23,886.05,260,974C288.46,994.6,316.87,1015.27,345.62,1036.18Z"/><path class="cls-2" d="M1744.49,790.08Q1683.14,602,1622.2,413.78c-1.69-5.22-4-6.71-9.3-6.71q-198.48.24-397,.19c-2.23,0-3.93-.18-5.22-1.26L138,411.09c-.1.27-.2.54-.3.84q-61.29,189.42-123,378.7c-1.19,3.66-.52,5.49,2.57,7.73L21,801.12l1724.06-8.2A11.65,11.65,0,0,0,1744.49,790.08Z"/><path class="cls-3" d="M1419.1,1033q161.28-117.21,322.63-234.33a8.57,8.57,0,0,0,3-3.16L24.5,803.63Q141.83,888.7,259,974c28.43,20.65,56.84,41.32,85.59,62.23l-1.25,3.89,1073-5.1C1417.35,1034.24,1418.22,1033.58,1419.1,1033Z"/><path class="cls-3" d="M225.88,1433.58q160.72,115.35,321.2,231.06c4.45,3.21,7.15,3.07,11.46-.1q159.9-117.6,320-235c1.8-1.33,3.28-2.18,5-2.08l861.88-638.66c-.07-.28-.15-.56-.25-.86q-62.62-189-124.84-378.09c-1.2-3.66-2.83-4.74-6.65-4.72l-4.68,0L223.71,1431.64A11.47,11.47,0,0,0,225.88,1433.58Z"/><path class="cls-2" d="M344.57,1045.27q-60.7,189.92-121.51,379.79a8.56,8.56,0,0,0-.51,4.29L1604.65,405.21q-144.93.81-289.85,1.41l-105.82.46c-.48-1.46-.9-2.7-1.29-3.89L345.55,1042C345.21,1043.2,344.9,1044.25,344.57,1045.27Z"/><path class="cls-4" d="M1208.68,402.62q-57.9-179-116.1-357.86c-2.93-9-5.89-18-8.87-27.07h-5.83q-198.24,0-396.48-.13c-2.3,0-3.87.36-5,1.22l535.48,1646.11c1.47-1.05,2.74-2,4-2.86q160.29-116.44,320.66-232.8c3.83-2.77,4.41-5,3-9.34q-59-180.73-117.65-361.55c-2.4-7.38-4.73-14.79-7.07-22.12.62-.46,1.18-.89,1.71-1.3L1212.14,406.8C1210.6,406.26,1209.48,405.1,1208.68,402.62Z"/><path class="cls-5" d="M673.59,23.43Q612.39,212.36,551,401.23a11.84,11.84,0,0,1-1.89,3.84l332,1020.72,327.7,238.15L674.48,21.16A18,18,0,0,0,673.59,23.43Z"/></g></g></svg>