<svg xmlns="http://www.w3.org/2000/svg" viewBox="0 0 1956.86 1861.06"><defs><style>.cls-1{fill:#ed225d;stroke:#c0eeff;stroke-miterlimit:10;stroke-width:64px;}</style></defs><title>Asset 25</title><g id="Layer_2" data-name="Layer 2"><g id="Layer_3" data-name="Layer 3"><path class="cls-1" d="M1919.24,897.4,1764.45,421H1355.28L1228.83,32H728.33c-1.17,3.17-2.4,6.22-3.41,9.34q-26.2,80.64-52.36,161.3Q638.68,307,604.73,411.36c-3.14,9.66-3.19,9.65-13.06,9.72-2.33,0-4.66,0-7,0H192.38Q114.88,659.65,37.62,897.41l330.71,240.25c-1.64,5.48-3,10.24-4.48,14.93q-59.19,182.16-118.4,364.31c-3.29,10.11-3.28,10.14,5.12,16.25Q444.43,1674,638.31,1814.92c2.92,2.12,5.93,4.1,9.29,6.41l330.84-240.45,331.06,240.63,405.14-294.44-126.41-389.19Zm-490.8,396.29-247.65,180L978.43,1326.58l-202.22,147c-2.05-1.41-3.89-2.62-5.68-3.91l-237-172.24c-5.14-3.73-5.14-3.75-3.13-9.93q36.18-111.35,72.37-222.69c.93-2.86,1.74-5.77,2.74-9.12L403.36,908.82q47.28-145.5,94.6-291.15H742c6,0,6.07,0,8-5.94q20.75-63.78,41.46-127.58,16-49.29,32-98.6c.62-1.9,1.37-3.76,2.09-5.7h305.93l77.29,237.75h250.1c31.53,97,63,193.81,94.62,291.22l-202.33,147C1376.92,1135.08,1402.58,1214.09,1428.44,1293.69Z"/></g></g></svg>