<svg xmlns="http://www.w3.org/2000/svg" viewBox="0 0 1822.45 1772.57"><defs><style>.cls-1{fill:none;stroke:#ed225d;stroke-miterlimit:10;stroke-width:96px;}</style></defs><title>Asset 24</title><g id="Layer_2" data-name="Layer 2"><g id="Layer_3" data-name="Layer 3"><path class="cls-1" d="M1774.41,811.12c.72-.45-8.25-26.3-8.25-26.3S1696,569.71,1655.34,444.22c-1.17-3.63-6.28-4.61-8.86-5.38-.8-2.45-1,4.83-1,4.83-4.67,5.88-3.87-7.09-2.58-5.16,7.89,11.84-2-.33-3.55-.32l-18.62-.65q-185.85.19-371.7.16a10.85,10.85,0,0,1-4-.52l-.32-.13-.26-.14-.26-.15-.27-.2a6.68,6.68,0,0,1-2.19-3.49q-57.9-179-116.1-357.86c-2.92-9-5.89-18-8.87-27.07H1111c-99.12,0-264.32,0-396.47-.13-2.31,0-4.6-.16-5,1.22-.14.42.55,1.69.55,1.69A5.25,5.25,0,0,0,708,52.17L581.61,439.59l-407.19,1.94s-3.08-3.39-4.44-3.22c-.89.11-1.06,1.6-1.46,2.86C127.65,567.45,45,825.36,48.08,827.6q121,87.69,241.79,175.59c28.42,20.65,56.83,41.32,85.59,62.22-.26.8-.49,1.52-.71,2.22l1.66,1.2h0l.36.26c-.64,2-1.14,3.56-1.65,5.13q-61.29,188.64-122.65,377.24l-1.3,1c.22.25.47.5.74.76l-.06.18c-1.18,3.63-1.07,5.74,2.39,8.25Q415.07,1578.19,575.71,1695c1.57,1.14,3.2,2.19,4.88,3.33l.25-.18,3.89-11.94c.41-.26.84-.55,1.28-.87q159.15-117.06,318.47-233.88l4.73,3.42,1.29-.94,331.34,240.8,2.39-1.71.76,2.32,4-2.86q160.29-116.45,320.66-232.8c3.83-2.78,4.4-5,3-9.34q-59-180.73-117.66-361.55c-2.4-7.39-4.73-14.79-7.07-22.12l1.72-1.3-4.26-13.1,308.74-228.78S1759.23,820.58,1774.41,811.12Z"/></g></g></svg>