<svg xmlns="http://www.w3.org/2000/svg" viewBox="0 0 1827.15 1742.06"><defs><style>.cls-1{fill:#ed225d;}</style></defs><title>Asset 32</title><g id="Layer_2" data-name="Layer 2"><g id="Layer_3" data-name="Layer 3"><path class="cls-1" d="M913.72,1513.35c-5.79,4.13-11,7.74-16.05,11.44q-140.56,102.14-281.11,204.3c-9.25,6.72-18.72,12.35-30.73,12.91-13,.6-24.05-3.42-34.35-11-25.75-18.91-51.67-37.61-77.52-56.39Q352.37,1586.29,230.79,1498c-2.43-1.76-4.88-3.49-7.19-5.39-17.06-14-22.63-31.8-16.33-52.68,7.88-26.1,16.62-51.94,25-77.87q43.32-133.3,86.67-266.58c1.21-3.75,2.11-7.61,3.28-11.88-3.42-2.61-6.5-5.06-9.69-7.38Q168.4,971.38,24.13,866.7C12,857.9,3.35,847.33.59,832.29c-1.82-9.95.87-19.14,3.85-28.34q28.5-87.76,57-175.52,33-101.52,66-203C130.8,415,135.73,405.86,144.5,399c7-5.47,14.67-9.09,23.65-9.5,5.65-.26,11.31-.56,17-.56q173.81-.06,347.62,0H548c1.84-5.11,3.51-9.39,4.93-13.75q54.9-168.89,109.66-337.79c5.71-17.65,15.55-30.92,34.11-35.75C702.42.17,708.57.09,714.51.07Q802.92-.08,891.32,0h219.76c31.27,0,44.79,9.77,54.37,39.27l109.71,337.77c.41,1.27.74,2.56,1.18,3.81,2.73,7.8,2.73,7.82,11.4,8,3.33.08,6.66,0,10,0h342.63c4.32,0,8.66-.08,13,.11,23.67,1,38.41,11.91,46,34.47,9.29,27.75,18.26,55.61,27.3,83.44Q1774.55,654.47,1822.4,802c1.84,5.67,3.78,11.47,4.42,17.35,2.13,19.71-5.94,34.67-21.9,46.15-38.37,27.6-76.53,55.5-114.76,83.28q-88.07,64-176.11,128c-2.92,2.13-5.73,4.41-8.91,6.87,1,3.51,1.72,6.7,2.72,9.8q55,169.36,110,338.73c2.14,6.6,4.36,13.45,4.75,20.28,1,18.12-7.29,32-21.73,42.44q-37.58,27.28-75.11,54.61-124,90.1-248,180.2c-8.71,6.33-17.71,11.51-28.92,12.23-13.32.85-24.73-3.2-35.35-11-31.14-22.83-62.45-45.44-93.68-68.13L923.5,1520.19C920.56,1518.06,917.55,1516,913.72,1513.35Zm-331,123.41c3.71-2.59,6.73-4.63,9.68-6.77l218.12-158.51c24.77-18,49.45-36.14,74.4-53.9,18.94-13.47,38.38-13.28,57.54-.11,3,2.07,5.94,4.28,8.9,6.43l283.58,206c3.18,2.31,6.47,4.47,10.07,6.94q137.94-100.21,275-199.83c-1-3.67-1.59-6.57-2.5-9.37q-25.27-77.81-50.6-155.6-30.23-93-60.41-186c-3.1-9.54-5.39-19.09-3.29-29.36,3-14.72,12-24.65,23.73-33.17Q1571.34,919,1715.47,814.08c1.89-1.37,3.68-2.88,5.66-4.1,3.11-1.94,3.51-4.59,2.48-7.77l-1.86-5.69q-49.17-151.35-98.36-302.68c-1.11-3.43-2.56-6.76-4.13-10.87h-13.11q-177.32,0-354.64,0c-5,0-10.06.1-14.89-.87-20.31-4.1-32-17.08-38.26-36.47q-55-170.41-110.54-340.67c-3.66-11.24-3.71-11.27-15.11-11.27q-158.84,0-317.67,0c-11.62,0-11.63,0-15.2,11q-45,138.52-90,277.06c-7.29,22.45-14.5,44.93-21.95,67.34C621.92,467,609.73,478.26,591.14,482c-5.16,1-10.58,1-15.88,1q-177.81.07-355.63.06c-12.37,0-11.39-1.7-15.7,11.56q-49.34,151.82-98.72,303.6c-.91,2.79-1.52,5.67-2.4,9,3.39,2.55,6.51,5,9.71,7.31L399.3,1022.88c3.23,2.34,6.49,4.68,9.5,7.29,10.37,9,16.4,20.46,15.69,34.18a104.35,104.35,0,0,1-5.17,26.22q-54.15,167.57-108.73,335c-.72,2.21-1.4,4.44-2.11,6.66-1.05,3.28-.2,5.81,2.8,7.67,1.7,1,3.23,2.35,4.85,3.52Q444.58,1536.73,573,1630.06C576,1632.19,579,1634.19,582.76,1636.76Z"/></g></g></svg>