<svg xmlns="http://www.w3.org/2000/svg" viewBox="0 0 1757.21 1685.42"><defs><style>.cls-1,.cls-2{fill:#ed225d;stroke:#fff;stroke-miterlimit:10;stroke-width:16px;}.cls-1{opacity:0.75;}.cls-2{opacity:0.5;}</style></defs><title>Asset 30</title><g id="Layer_2" data-name="Layer 2"><g id="Layer_3" data-name="Layer 3"><path class="cls-1" d="M1208.68,403.14q-57.9-179-116.1-357.86c-2.93-9-5.89-18-8.87-27.07h-5.83q-198.24,0-396.48-.13a8.15,8.15,0,0,0-5,1.22l535.48,1646.11,4-2.86q160.29-116.44,320.66-232.8c3.83-2.78,4.41-5,3-9.34q-59-180.73-117.65-361.55c-2.4-7.39-4.73-14.79-7.07-22.12l1.71-1.3L1212.14,407.32C1210.6,406.78,1209.48,405.61,1208.68,403.14Z"/><path class="cls-2" d="M673.59,24Q612.39,212.88,551,401.74a11.9,11.9,0,0,1-1.89,3.85l332,1020.72,327.7,238.15L674.48,21.68A18,18,0,0,0,673.59,24Z"/><path class="cls-1" d="M1083.71,18.21h-5.83q-198.24,0-396.48-.13c-2.69,0-4.38.49-5.6,1.69L344.26,1036.43l.36.26c-.63,2-1.14,3.56-1.65,5.14Q281.36,1231.42,219.7,1421c-1.18,3.62-1.06,5.74,2.4,8.24q160.81,116.57,321.47,233.37c1.56,1.14,3.19,2.2,4.87,3.34l.25-.18L1084.84,21.65C1084.46,20.5,1084.08,19.36,1083.71,18.21Z"/><path class="cls-2" d="M1208.68,403.14q-57.9-179-116.1-357.86-3.18-9.76-6.41-19.57l-534,1637.49,327.49-238,.33.24L1212,407.28C1210.54,406.72,1209.46,405.56,1208.68,403.14Z"/><path class="cls-1" d="M1744.49,790.6q-61.35-188.08-122.29-376.31c-1.69-5.21-4-6.7-9.3-6.7q-198.48.24-397,.18c-2.23,0-3.93-.18-5.22-1.25L138,411.61q-.15.39-.3.84-61.29,189.42-123,378.7c-1.19,3.66-.52,5.49,2.57,7.73L21,801.63l1724.06-8.19A11.46,11.46,0,0,0,1744.49,790.6Z"/><path class="cls-2" d="M1419.1,1033.46q161.28-117.19,322.63-234.32a8.52,8.52,0,0,0,3-3.17L24.5,804.15Q141.83,889.22,259,974.47c28.43,20.65,56.84,41.32,85.59,62.22l-1.25,3.9,1073-5.1C1417.35,1034.76,1418.22,1034.1,1419.1,1033.46Z"/></g></g></svg>