<svg xmlns="http://www.w3.org/2000/svg" viewBox="0 0 1899.21 1862.43"><defs><style>.cls-1{fill:none;}.cls-2,.cls-3{fill:#ed225d;}.cls-2{stroke:#000;stroke-width:128px;}.cls-2,.cls-3,.cls-4{stroke-miterlimit:10;}.cls-3,.cls-4{stroke:#fff;stroke-width:64px;}.cls-4{fill:#c0eeff;}</style></defs><title>Asset 34</title><g id="Layer_2" data-name="Layer 2"><g id="Layer_3" data-name="Layer 3"><path class="cls-1" d="M1087,452.05h-3.42q-116.53,0-233.07-.08a4.86,4.86,0,0,0-3,.72l.32,1a3.14,3.14,0,0,0-1.24.73h0l-74,226.76c1.24-.54,2-1.62,2.58-3.52Q811,567.23,846.91,456.86c.24-.72.52-1.44.85-2.38h3.47q116.29,0,232.59-.06c2.66,0,3.81.67,4.66,3.3q35.6,110,71.3,220c1,3.07,2.31,3.91,5.42,3.91q115.42-.14,230.85-.16c3.13,0,4.26,1,5.17,3.84q35.74,110.43,71.72,220.77a8,8,0,0,1,.38,1.71h2.48a6.7,6.7,0,0,0-.36-1.68h0q-36.06-110.57-71.89-221.2c-.69-2.14-1.54-3.21-3-3.66h0c-.48-1.44-1-2.88-1.42-4.32-.71-2.15-1.67-2.78-3.91-2.77l-2.76,0-9.18,6.8q-109.24.1-218.5.09a6.41,6.41,0,0,1-2.32-.3l-.19-.08-.15-.08-.16-.09-.16-.12a4,4,0,0,1-1.28-2h0q-34-105.21-68.25-210.37C1090.5,462.67,1088.76,457.4,1087,452.05Z"/><path class="cls-1" d="M1171.6,112c2.26,6.91,4.52,13.76,6.75,20.6C1176.12,125.77,1173.86,118.92,1171.6,112Z"/><path class="cls-1" d="M636.36,503.46,762.7,116h0a5.16,5.16,0,0,1,2.11-1.24l-.55-1.7c-1.27.92-2.06,2.42-2.78,4.65q-61.2,188.92-122.56,377.8c-1.47,4.51-3.3,6.09-8.19,6.09q-198.73-.22-397.48-.18c-2.88,0-5,.18-6.45,2.23l2.36,1.71Z"/><path class="cls-1" d="M1281.83,1053.36q36,110.36,71.87,220.73c.74,2.3.29,3.34-1.58,4.69q-94.69,68.64-189.28,137.46c-1.8,1.31-2.86,1-4.45-.16q-94.14-68.41-188.3-136.82c-1.61-1.17-2.73-1.33-4.11-.62L1160.48,1420l1.4-1,.45,1.37,2.34-1.68h0q94.23-68.46,188.5-136.85c2.25-1.63,2.59-2.94,1.75-5.49h0q-34.65-106.24-69.16-212.54c-1.41-4.34-2.78-8.69-4.16-13l1-.77-.37-1.16C1281.25,1050.07,1281.17,1051.35,1281.83,1053.36Z"/><path class="cls-1" d="M583.33,1279.1c-2.25-1.63-2.71-2.93-1.83-5.62q35.87-109.93,71.61-219.9c.92-2.81.68-4.3-1.88-6.15q-94-68.06-188-136.28c-1.7-1.24-2-2.24-1.37-4.28q36.17-111,72.14-222.16a8,8,0,0,1,.6-1.42H533l-2.61-1.89a4.86,4.86,0,0,0-.86,1.68q-36,111.35-72.31,222.62c-.7,2.15-.3,3.23,1.51,4.54q71.12,51.56,142.14,103.22l50.31,36.58-.42,1.3,1,.71h0l.21.16c-.38,1.16-.67,2.09-1,3q-36,110.88-72.1,221.75l-.76.56a4.47,4.47,0,0,0,.43.45l0,.11c-.69,2.13-.62,3.37,1.41,4.85h0q94.55,68.52,189,137.18c.92.67,1.88,1.29,2.86,2l.15-.1,1.59-4.89-24-17.39Q666.46,1339.39,583.33,1279.1Z"/><path class="cls-1" d="M535,685.48q-35.73,110.43-71.71,220.78c-.69,2.13-.3,3.2,1.5,4.51q70.53,51.12,141,102.36l49.89,36.28c-.37,1.15-.66,2.07-1,3q-35.91,110.52-71.86,221c-.69,2.12-.62,3.35,1.39,4.81q93.76,68,187.41,136c.76.55,1.54,1.07,2.33,1.6l.3-.91.75-.52q93.56-68.81,187.21-137.48l2,1.41,3.41-2.48,193.16,140.38c1.08-.77,2-1.39,2.81-2q93.45-67.89,186.94-135.71c2.23-1.62,2.57-2.92,1.74-5.45q-34.37-105.36-68.59-210.78c-1.4-4.3-2.76-8.62-4.12-12.89.92-.7,1.65-1.26,2.38-1.8l-1.73-5.32h0L1461.6,907.83l10.45-.05a6.12,6.12,0,0,0-.36-1.84q-35.76-109.65-71.29-219.38c-1-3-2.3-3.91-5.42-3.91q-115.71.14-231.43.11c-2.14,0-3.44-.28-4.23-2.7q-33.75-104.34-67.68-208.63c-1.7-5.24-3.43-10.48-5.17-15.78h-3.4q-115.57,0-231.14-.08c-2.8,0-3.74.92-4.56,3.43Q811.7,569.13,775.92,679.24c-.85,2.64-1.92,3.56-4.77,3.56q-58.49-.07-116.95-.08l-117.82.56A4,4,0,0,0,535,685.48Z"/><path class="cls-1" d="M1832.8,885.92a8.07,8.07,0,0,1,.19,1.32A8.07,8.07,0,0,0,1832.8,885.92Z"/><path class="cls-1" d="M102.57,885c-.78,2.39-.74,4,.23,5.47.53-4,4.74-19,11.42-41.24Q108.39,867.06,102.57,885Z"/><path class="cls-1" d="M1624.37,1523.55c2.4-1.74,3.52-3.26,3.68-5.22C1627.89,1520.29,1626.77,1521.81,1624.37,1523.55Z"/><path class="cls-1" d="M1624.37,1523.55q-80.2,58.14-160.36,116.35Q1544.17,1581.7,1624.37,1523.55Z"/><path class="cls-1" d="M1299,1756.89l-2.07,1.48,2,1.44,1.7-1.22-.87.62Z"/><path class="cls-1" d="M1500.09,1116.14l4.26,13.1c.94-.71,1.79-1.35,2.64-2q161.28-117.21,322.63-234.33c2.51-1.82,3.52-3.4,3.37-5.7l-24.15.12Z"/><path class="cls-1" d="M1832.38,884.41a13.28,13.28,0,0,1,.42,1.5A13.28,13.28,0,0,0,1832.38,884.41Z"/><path class="cls-1" d="M964,1518.75l-4.72-3.43Q800,1632.28,640.75,1749.2c-.44.32-.86.61-1.27.87h0l-3.15,9.65h0l330.91-240.47-2-1.44Z"/><path class="cls-2" d="M1834.52,884.63q-61.71-189.28-123-378.69c-1.42-4.38-3.14-6.22-7.42-6.53l.81,2.46a6.14,6.14,0,0,1,.88.33l.09,0a5.76,5.76,0,0,1,.69.38l.11.07a6.19,6.19,0,0,1,1.3,1.16l.12.15a7,7,0,0,1,.47.66l.08.11c.17.27.33.57.49.88l.09.19c.12.26.24.54.36.83,0,.09.07.18.11.28.14.36.28.74.41,1.15q15.23,47.05,30.49,94.1,45.78,141.13,91.8,282.2h0a13.28,13.28,0,0,1,.42,1.5h0a8.07,8.07,0,0,1,.19,1.32h0c.15,2.3-.86,3.88-3.37,5.7Q1668.24,1010,1507,1127.27c-.85.62-1.7,1.26-2.64,2h0l-.6.46-1.11.84c2.34,7.33,4.67,14.74,7.07,22.12q6.61,20.34,13.22,40.67,31,95.25,62,190.48,21.22,65.2,42.47,130.4a15.84,15.84,0,0,1,.56,2.17,8.35,8.35,0,0,1,.13,1.08,6.31,6.31,0,0,1,0,.87c-.16,2-1.28,3.48-3.68,5.22q-80.2,58.14-160.36,116.35t-160.29,116.45l-1,.74-.69.49-.29.21-1.12.8-1.7,1.22-2-1.44-.32.23h0L967.24,1519.25,636.33,1759.72h0l-.69,2.13.48.35c1.62-1.13,3-2.07,4.33-3Q801.79,1642,963.08,1524.83c3.34-2.43,5.46-2.56,8.89-.06q161.43,117.43,323,234.69c2.74,2,4.55,2.52,7.65.26q162.23-118,324.66-235.78c3.21-2.32,4-4.1,2.71-8q-61.73-189.29-123.27-378.62c-1.56-4.78-.77-7.14,3.31-10.1q160.67-116.36,321.2-232.89C1835.08,891.49,1836,889.26,1834.52,884.63Z"/><path class="cls-2" d="M233.25,501.46q198.74.1,397.48.18c4.89,0,6.72-1.58,8.19-6.09q61.19-188.94,122.56-377.8c.72-2.23,1.51-3.73,2.78-4.65h0l.45-.29h0a4.66,4.66,0,0,1,.5-.25h0a5,5,0,0,1,.54-.21h0l.57-.16h.06A5.41,5.41,0,0,1,767,112l.15,0,.55-.07.32,0c.15,0,.3,0,.45,0s.55,0,.84,0l59.47.05q69.4.06,138.79.08h204c2.26,6.91,4.52,13.76,6.75,20.6q1.07,3.22,2.12,6.47Q1232.79,300.18,1285,461.3q5.78,17.82,11.54,35.64c.08.24.16.46.24.67l.12.28c0,.1.08.21.13.31s.11.23.17.34a1.09,1.09,0,0,0,.08.15c.07.14.15.27.22.39h0a5.39,5.39,0,0,0,.56.73s.06.06.08.09a4.22,4.22,0,0,0,.55.5,3.65,3.65,0,0,0,.31.24l.19.1a2.64,2.64,0,0,0,.37.2l.26.11.05,0a8.58,8.58,0,0,0,2.78.48h0q.52,0,1.11,0,185.85-.1,371.7-.16l2.74-2q-185.8.22-371.6.24c-5.34,0-7.61-1.43-9.32-6.7q-61-188.73-122.28-377.36c-1.46-4.51-3.44-5.66-8-5.66q-199.48.21-399,.11h-5.94c-.58,1.61-1.06,2.84-1.47,4.09Q699.17,303.45,637.77,492.83c-1.67,5.17-3.78,6.81-9.23,6.8q-198.48-.24-397-.23c-3.4,0-5.23.75-6.52,3l1.75,1.27C228.28,501.64,230.37,501.46,233.25,501.46Z"/><path class="cls-2" d="M306.59,1517.24l.06-.18a8.56,8.56,0,0,1-.73-.76l1.29-1q61.41-188.6,122.65-377.23c.51-1.58,1-3.16,1.65-5.14l-.35-.26h0l-1.67-1.2c.23-.7.46-1.42.71-2.21-28.75-20.91-57.16-41.58-85.59-62.23Q223.76,979.22,102.83,891.48h0c-.1-.08-.11-.44,0-1.06-1-1.46-1-3.08-.23-5.47q5.84-17.88,11.65-35.77c10.69-35.63,27.68-89.87,45.95-147.42Q130.26,793.89,100.25,886c-1.14,3.5-.56,5.22,2.36,7.34Q263.84,1010.21,425,1127.11c4.38,3.17,4.8,5.72,3.22,10.54q-61.5,188.56-122.83,377.19c-1.14,3.51-1,5.65.89,7.7C305.65,1521,305.89,1519.42,306.59,1517.24Z"/><path class="cls-2" d="M1279.46,1049.44c1.36,4.27,2.72,8.59,4.12,12.89q34.26,105.4,68.59,210.78c.83,2.53.49,3.83-1.74,5.45q-93.54,67.77-186.94,135.71c-.86.63-1.73,1.25-2.81,2L967.52,1275.91l-3.41,2.48.83.6.76-.55.1.07v0l.18.13c1.38-.71,2.5-.55,4.11.62q94.11,68.46,188.3,136.82c1.59,1.16,2.65,1.47,4.45.16q94.58-68.82,189.28-137.46c1.87-1.35,2.32-2.39,1.58-4.69q-36-110.34-71.87-220.73c-.66-2-.58-3.29.41-4.5l-.4-1.22C1281.11,1048.18,1280.38,1048.74,1279.46,1049.44Z"/><path class="cls-2" d="M1401.22,685.3c-.91-2.82-2-3.84-5.17-3.84q-115.42.18-230.85.16c-3.11,0-4.43-.84-5.42-3.91q-35.57-110-71.3-220c-.85-2.63-2-3.3-4.66-3.3q-116.29.12-232.59.06h-3.47c-.33.94-.61,1.66-.85,2.38Q811,567.25,775.26,677.66c-.62,1.9-1.34,3-2.58,3.52l-.32,1-118.16.56q58.47,0,116.95.08c2.85,0,3.92-.92,4.77-3.56Q811.59,569.11,847.37,459c.82-2.51,1.76-3.43,4.56-3.43q115.58.15,231.14.08h3.4c1.74,5.3,3.47,10.54,5.17,15.78q33.87,104.3,67.68,208.63c.79,2.42,2.09,2.7,4.23,2.7q115.71-.06,231.43-.11c3.12,0,4.43.87,5.42,3.91q35.5,109.74,71.29,219.38a6.12,6.12,0,0,1,.36,1.84h1.27a8,8,0,0,0-.38-1.71Q1437,795.73,1401.22,685.3Z"/><path class="cls-2" d="M771.57,1414.29q-93.68-68-187.41-136c-2-1.46-2.08-2.69-1.39-4.81q36-110.49,71.86-221c.3-.92.59-1.84,1-3l-49.89-36.28q-70.47-51.21-141-102.36c-1.8-1.31-2.19-2.38-1.5-4.51q36-110.35,71.71-220.78a4,4,0,0,1,1.43-2.2h-1.75a8,8,0,0,0-.6,1.42q-36,111.1-72.14,222.16c-.67,2-.33,3,1.37,4.28q94,68.13,188,136.28c2.56,1.85,2.8,3.34,1.88,6.15q-35.86,109.93-71.61,219.9c-.88,2.69-.42,4,1.83,5.62q83.16,60.24,166.22,120.62l24,17.39.4-1.22C773.11,1415.36,772.33,1414.84,771.57,1414.29Z"/><path class="cls-3" d="M536.38,683.28l117.82-.56q-57.39,0-114.77,0A5.32,5.32,0,0,0,536.38,683.28Z"/><path class="cls-3" d="M1281.84,1047.64l.15-.11,4-2.92-5.9-2.29Z"/><path class="cls-3" d="M1280.11,1042.32h0l6.06,2.17q91.93-66.81,183.91-133.57c1.39-1,2-1.9,2-3.14l-10.45.05Z"/><path class="cls-4" d="M534.63,683.29c.75-1.35,1.82-1.8,3.82-1.8q115.71.12,231.43.14a9.22,9.22,0,0,0,1.94-.18l-135.46-178-407.2,1.94,301.23,176L533,683.3Z"/><path class="cls-4" d="M771.82,681.45a5.1,5.1,0,0,0,.86-.27l74-226.76h0L762.7,116,636.36,503.46,709.05,599Z"/><path class="cls-3" d="M457.22,901.8,103.73,891.5a13.7,13.7,0,0,0,1.41,1.18q121,87.69,241.79,175.59c27.8,20.2,55.6,40.42,83.71,60.86l220.12-77.78h0l.42-1.3-50.31-36.58q-71.05-51.63-142.14-103.22c-1.81-1.31-2.21-2.39-1.51-4.54q36.25-111.29,72.31-222.62a4.86,4.86,0,0,1,.86-1.68l-301.23-176-2.36-1.71a9.12,9.12,0,0,0-1.23,2.56q-55.5,171.53-111.35,342.93c-6.68,22.26-10.89,37.24-11.42,41.24a7.45,7.45,0,0,0,.93,1.08Z"/><path class="cls-3" d="M1400.5,681.23c1.51.45,2.36,1.52,3,3.66q35.81,110.64,71.89,221.2l333.4-18.73-333.4,18.73a6.7,6.7,0,0,1,.36,1.68h-2.48c.14,1.62-.59,2.68-2.3,3.92q-91.89,66.56-183.7,133.2l96.1,34.38,120.93,50h0l-4.26-13.1,308.75-228.78,24.15-.12h0a8.07,8.07,0,0,0-.19-1.32h0a13.28,13.28,0,0,0-.42-1.5h0q-46-141.06-91.8-282.2-15.27-47-30.49-94.1c-.13-.41-.27-.79-.41-1.15,0-.1-.07-.19-.11-.28-.12-.29-.24-.57-.36-.83l-.09-.19c-.16-.31-.32-.61-.49-.88l-.08-.11a7,7,0,0,0-.47-.66l-.12-.15a6.19,6.19,0,0,0-1.3-1.16l-.11-.07a5.76,5.76,0,0,0-.69-.38l-.09,0a6.14,6.14,0,0,0-.88-.33L1400.5,681.23Z"/><path class="cls-3" d="M1832.38,884.41h0q-46-141.06-91.8-282.2,45.78,141.13,91.8,282.2Z"/><path class="cls-4" d="M1287.12,1045l-3.36,2.44a7.76,7.76,0,0,0-1.52,1.38l.37,1.16-1,.77c1.38,4.31,2.75,8.66,4.16,13q34.54,106.28,69.16,212.54l272.44,237.88q-21.27-65.19-42.47-130.4-31-95.24-62-190.48-6.6-20.34-13.22-40.67c-2.4-7.38-4.73-14.79-7.07-22.12l1.11-.84.6-.46Z"/><path class="cls-4" d="M1503.75,1129.7l.6-.46h0Z"/><path class="cls-3" d="M225.05,502.42l-.33-.24a8.65,8.65,0,0,0-1.46,2.86c-16.89,52.2-40.92,126.89-63.09,196.72q32-98.41,63.82-196.84A13.51,13.51,0,0,1,225.05,502.42Z"/><path class="cls-3" d="M579.92,1283c-2-1.48-2.1-2.72-1.41-4.85l0-.11a4.47,4.47,0,0,1-.43-.45l.76-.56Q615,1166.13,651,1055.24c.3-.93.59-1.86,1-3l-.21-.16h0l-1-.71-102.89,37-117.23,40.82,1.88,1.37-1.66,5.13q-61.59,189.58-123.27,379.14c-1.18,3.63-1.06,5.74,2.4,8.25l1,.7L579.92,1283Z"/><path class="cls-4" d="M1303.82,501.58q-.58,0-1.11,0h0a8.58,8.58,0,0,1-2.78-.48h-.05l-.26-.11,0,0-.26-.13-.07-.05-.19-.1h0l-.28-.19,0,0a5.07,5.07,0,0,1-.55-.5s-.06,0-.08-.09a5.39,5.39,0,0,1-.56-.73h0c-.07-.12-.15-.25-.22-.39a1.09,1.09,0,0,1-.08-.15c-.06-.11-.12-.23-.17-.34s-.09-.21-.13-.31l-.12-.28c-.08-.21-.16-.43-.24-.67l-72.75,96.95-63.35,84.44h0a4,4,0,0,0,1.28,2l.16.12.16.09.15.08.19.08a6.41,6.41,0,0,0,2.32.3Q1274,681,1383.23,681l9.18-6.8,2.76,0c2.24,0,3.2.62,3.91,2.77.47,1.44.94,2.88,1.42,4.32l304.39-179.36a14.33,14.33,0,0,0-4.1-.48Q1502.31,501.63,1303.82,501.58Z"/><path class="cls-3" d="M1354.92,1276.33c.84,2.55.5,3.86-1.75,5.49q-94.32,68.34-188.5,136.85h0L1296.33,1758l.58.42,2.07-1.48.75,2.32.87-.62,1.12-.8.29-.21.69-.49,1-.74q80.15-58.23,160.29-116.45t160.36-116.35c2.4-1.74,3.52-3.26,3.68-5.22a6.31,6.31,0,0,0,0-.87,8.35,8.35,0,0,0-.13-1.08,15.84,15.84,0,0,0-.56-2.17Z"/><path class="cls-3" d="M1301.72,1757.79l-1.12.8Z"/><path class="cls-3" d="M1704.08,499.41l-1.61-4.88c-1.2-3.65-2.83-4.73-6.65-4.71l-4.68,0-12.88,9.54,24.37,0C1703.15,499.36,1703.62,499.38,1704.08,499.41Z"/><path class="cls-3" d="M762.7,116h0l83.93,338.38a3.14,3.14,0,0,1,1.24-.73l-.32-1a4.86,4.86,0,0,1,3-.72q116.54.15,233.07.08H1087l78.77-340H967.55q-69.39,0-138.79-.08l-59.47-.05c-.29,0-.57,0-.84,0s-.3,0-.45,0l-.32,0-.55.07-.15,0a5.41,5.41,0,0,0-.58.12h-.06l-.57.16h0a5,5,0,0,0-.54.21h0a4.66,4.66,0,0,0-.5.25h0l-.45.29h0l.55,1.7A5.16,5.16,0,0,0,762.7,116Z"/><path class="cls-4" d="M1092.22,468q34.15,105.18,68.25,210.37l136.1-181.39q-5.76-17.82-11.54-35.64-52.18-161.15-104.56-322.22-1-3.24-2.12-6.47c-2.23-6.84-4.49-13.69-6.75-20.6h-5.83l-78.77,340C1088.76,457.4,1090.5,462.67,1092.22,468Z"/><path class="cls-3" d="M775,1414.46l-.75.52-.3.91.52.35,189.69-137.85-2-1.41Q868.56,1345.73,775,1414.46Z"/><path class="cls-3" d="M309.42,1525.11l-.43.38q160.83,116.57,321.47,233.37c1.57,1.14,3.2,2.19,4.87,3.34l.25-.18.06-.17-42-30.45Q451.59,1628.2,309.42,1525.11Z"/><path class="cls-3" d="M308.56,1524.49a15.24,15.24,0,0,1-2.25-2,7.64,7.64,0,0,0,2.68,3l.43-.38Z"/><path class="cls-4" d="M639.48,1750.07,768.9,1420.14,639.48,1750.07c.41-.26.83-.55,1.27-.87q159.15-117.06,318.48-233.88l4.72,3.43,1.85-240a8.77,8.77,0,0,0-.9.57q-94,68.37-188.09,136.61c-.78.57-1.58,1.11-2.52,1.77l-.79-.57-1.59,4.89-.15.1c-1-.67-1.94-1.29-2.86-2q-94.47-68.61-189-137.18L311,1523.72q160.33,116.22,320.49,232.66c1.57,1.14,3.2,2.2,4.87,3.34l3.15-9.65Z"/><path class="cls-3" d="M1296.33,1758l-131.66-339.28-2.34,1.68-.45-1.37-1.4,1L966,1278.64l-.18.09L965.7,1390,964,1518.75l1.3-.94,2,1.44.32-.24Z"/><path class="cls-3" d="M631.46,1756.38Q471.24,1640,311,1523.72l-1.55,1.39q142.21,103,284.26,206.29l42,30.45.69-2.13C634.66,1758.58,633,1757.52,631.46,1756.38Z"/><polygon class="cls-3" points="764.26 113.1 764.26 113.1 764.26 113.09 764.26 113.1"/><path class="cls-3" d="M308.56,1524.49l.86.62,1.55-1.39-1-.7c-3.46-2.51-3.58-4.62-2.4-8.25q61.73-189.54,123.27-379.14l1.66-5.13-1.88-1.37-.44.16c-.25.79-.48,1.51-.71,2.21l1.67,1.2h0l.35.26c-.63,2-1.14,3.56-1.65,5.14q-61.29,188.63-122.65,377.23l-1.29,1a8.56,8.56,0,0,0,.73.76l-.06.18c-.7,2.18-.94,3.8-.28,5.3A15.24,15.24,0,0,0,308.56,1524.49Z"/><path class="cls-3" d="M346.93,1068.27Q226.06,980.43,105.14,892.68a13.7,13.7,0,0,1-1.41-1.18l-.9,0q121,87.67,241.78,175.58c28.43,20.65,56.84,41.32,85.59,62.23l.44-.16C402.53,1108.69,374.73,1088.47,346.93,1068.27Z"/><path class="cls-3" d="M225.57,506.25a9.12,9.12,0,0,1,1.23-2.56l-1.75-1.27a13.51,13.51,0,0,0-1.06,2.5q-31.85,98.43-63.82,196.84c-18.27,57.55-35.26,111.79-45.95,147.42Q170,677.76,225.57,506.25Z"/><path class="cls-3" d="M1303.82,501.58q198.48-.1,397-.19a14.33,14.33,0,0,1,4.1.48l-.81-2.46c-.46,0-.93-.05-1.45-.05l-24.37,0-2.74,2Q1489.67,501.6,1303.82,501.58Z"/><path class="cls-3" d="M1299.59,500.94l.26.11Z"/><path class="cls-3" d="M1299.9,501.07a8.58,8.58,0,0,0,2.78.48A8.58,8.58,0,0,1,1299.9,501.07Z"/><path class="cls-3" d="M1297.53,499.08a5.39,5.39,0,0,0,.56.73A5.39,5.39,0,0,1,1297.53,499.08Z"/><path class="cls-3" d="M1299,500.64l.19.1Z"/><path class="cls-3" d="M1298.72,500.4a4.22,4.22,0,0,1-.55-.5A5.07,5.07,0,0,0,1298.72,500.4Z"/><path class="cls-3" d="M1299.9,501.07l-.05,0h.05Z"/><path class="cls-3" d="M1299.55,500.92l0,0a2.64,2.64,0,0,1-.37-.2l.07.05Z"/><path class="cls-3" d="M1298.17,499.9s-.06,0-.08-.09S1298.15,499.87,1298.17,499.9Z"/><path class="cls-3" d="M1299,500.63h0a3.65,3.65,0,0,1-.31-.24l0,0Z"/><path class="cls-3" d="M1296.59,1758.6h0l.32-.23-.58-.42Z"/><path class="cls-3" d="M967.56,1519l-.32.24,329.35,239.35-.26-.65Z"/><path class="cls-3" d="M1285,461.3q-52.18-161.15-104.56-322.22-1-3.24-2.12-6.47,1.07,3.22,2.12,6.47Q1232.79,300.18,1285,461.3Z"/><path class="cls-3" d="M102.8,890.42c-.08.62-.07,1,0,1.06h0l.9,0A7.45,7.45,0,0,1,102.8,890.42Z"/><path class="cls-3" d="M1302.7,1757.09l1-.74q80.15-58.23,160.29-116.45-80.16,58.21-160.29,116.45Z"/><path class="cls-3" d="M1627.92,1516.38a15.84,15.84,0,0,0-.56-2.17q-21.27-65.19-42.47-130.4,21.22,65.2,42.47,130.4A15.84,15.84,0,0,1,1627.92,1516.38Z"/><path class="cls-3" d="M1627.92,1516.38a8.35,8.35,0,0,1,.13,1.08A8.35,8.35,0,0,0,1627.92,1516.38Z"/><path class="cls-3" d="M1509.71,1152.66c-2.4-7.38-4.73-14.79-7.07-22.12l1.11-.84-1.11.84C1505,1137.87,1507.31,1145.28,1509.71,1152.66Z"/><path class="cls-3" d="M1282,1047.53l-.15.11.4,1.22a7.76,7.76,0,0,1,1.52-1.38l3.36-2.44-1.11-.43Z"/><path class="cls-3" d="M965.8,1278.73l.18-.09-.18-.13Z"/><path class="cls-3" d="M769.88,681.63q-115.73-.15-231.43-.14c-2,0-3.07.45-3.82,1.8h1.75a5.32,5.32,0,0,1,3-.59q57.38,0,114.77,0l118.16-.56-.54-.71A9.22,9.22,0,0,1,769.88,681.63Z"/><path class="cls-3" d="M1470.08,910.92q-92,66.72-183.91,133.57l1.15.41q91.88-66.56,183.7-133.2c1.71-1.24,2.44-2.3,2.3-3.92h-1.27C1472.07,909,1471.47,909.91,1470.08,910.92Z"/><path class="cls-3" d="M965.7,1278.44l-.76.55-.83-.6L774.42,1416.24l-.52-.35-.4,1.22.79.57c.94-.66,1.74-1.2,2.52-1.77q94.07-68.28,188.09-136.61a8.77,8.77,0,0,1,.9-.57v-.22Z"/><path class="cls-3" d="M772.36,682.16l.32-1a5.1,5.1,0,0,1-.86.27Z"/><polygon class="cls-3" points="1223.82 593.89 1296.57 496.94 1160.47 678.33 1223.82 593.89"/><polygon class="cls-3" points="650.76 1051.35 430.64 1129.13 430.64 1129.13 547.87 1088.31 650.76 1051.35"/><polygon class="cls-3" points="430.2 1129.29 430.64 1129.13 430.64 1129.13 430.2 1129.29"/><polygon class="cls-3" points="965.8 1278.44 965.8 1278.51 965.8 1278.51 965.8 1278.44"/><polygon class="cls-3" points="963.95 1518.75 965.7 1390.01 965.8 1278.73 965.8 1278.73 963.95 1518.75"/><polygon class="cls-3" points="965.8 1278.51 965.8 1278.73 965.8 1278.73 965.8 1278.51 965.8 1278.51"/><path class="cls-3" d="M1504.35,1129.24h0l-120.93-50-96.1-34.38-.2.14Z"/><path class="cls-3" d="M1286,1044.61l.16-.12-6.06-2.17Z"/><path class="cls-3" d="M1286,1044.61l1.11.43.2-.14-1.15-.41Z"/><polygon class="cls-3" points="709.05 598.98 636.36 503.46 771.82 681.45 709.05 598.98"/></g></g></svg>