<svg xmlns="http://www.w3.org/2000/svg" viewBox="0 0 1863.5 1794.9"><defs><style>.cls-1,.cls-2{fill:#ed225d;stroke-miterlimit:10;}.cls-1{stroke:#000;stroke-width:128px;}.cls-2{stroke:#fff;stroke-width:64px;}</style></defs><title>Asset 43</title><g id="Layer_2" data-name="Layer 2"><g id="Layer_3" data-name="Layer 3"><path class="cls-1" d="M726.44,64.11h5.94q199.5,0,399-.11c4.55,0,6.53,1.15,8,5.65Q1200.4,258.37,1261.64,447c1.7,5.26,4,6.71,9.31,6.7q198-.23,396-.27c5.37,0,7.3,1.74,8.86,6.58q61.32,189.42,123,378.7c1.51,4.62.56,6.86-3.3,9.65q-160.66,116.37-321.21,232.9c-4.07,3-4.86,5.32-3.31,10.1q61.74,189.27,123.27,378.62c1.29,3.93.5,5.71-2.7,8q-162.43,117.75-324.66,235.78c-3.1,2.26-4.91,1.72-7.65-.27q-161.48-117.36-323-234.68c-3.43-2.5-5.55-2.37-8.9.06Q766.14,1596.2,604.74,1713.26c-1.34,1-2.71,1.9-4.32,3L558,1685.49Q415.45,1582,272.86,1478.59c-3.87-2.8-4.65-5-3.14-9.65q61.53-188.57,122.83-377.19c1.57-4.82,1.16-7.37-3.22-10.55Q228,964.46,66.91,847.43c-2.92-2.11-3.5-3.84-2.36-7.33q62-190.5,123.74-381.09c1.37-4.24,3.14-5.52,7.58-5.52q198.48.21,397,.24c5.44,0,7.56-1.64,9.23-6.8Q663.33,257.5,725,68.19C725.39,67,725.86,65.72,726.44,64.11ZM396.81,1084.59c-.64,2-1.14,3.56-1.65,5.14q-61.61,189.57-123.27,379.13c-1.18,3.63-1.07,5.74,2.4,8.25q160.82,116.57,321.46,233.37c1.57,1.14,3.2,2.19,4.88,3.34l331.23-240.71,331.33,240.8,4.82-3.46q160.29-116.45,320.66-232.8c3.83-2.78,4.41-5,3-9.34q-59-180.74-117.65-361.55c-2.4-7.39-4.73-14.79-7.08-22.12,1.7-1.28,3-2.3,4.35-3.28Q1632.57,964.17,1793.92,847c3.42-2.48,4.07-4.51,2.76-8.54q-61.35-188.09-122.29-376.31c-1.69-5.22-4-6.71-9.3-6.7q-198.49.24-397,.18c-3.67,0-5.9-.47-7.24-4.63q-57.91-179-116.11-357.86c-2.92-9-5.89-18-8.87-27.07h-5.83q-198.22,0-396.47-.13c-4.8,0-6.42,1.57-7.82,5.87Q664.59,260.77,603.21,449.64c-1.46,4.52-3.29,6.1-8.19,6.1q-198.73-.24-397.47-.18c-3.8,0-6.23.3-7.68,4.79Q128.58,649.77,66.87,839c-1.2,3.66-.52,5.5,2.57,7.74q121,87.69,241.78,175.58Z"/><path class="cls-1" d="M812.06,408.58h3.46q116.29,0,232.6-.06c2.65,0,3.81.66,4.66,3.29q35.6,110,71.29,220c1,3.07,2.32,3.91,5.43,3.91q115.43-.13,230.85-.16c3.13,0,4.25,1,5.16,3.84q35.76,110.42,71.73,220.77c.88,2.7.32,4-1.93,5.63q-93.66,67.85-187.25,135.77c-2.38,1.73-2.84,3.11-1.93,5.89q36,110.34,71.86,220.73c.75,2.29.29,3.33-1.58,4.69q-94.7,68.64-189.27,137.46c-1.81,1.31-2.86,1-4.46-.16q-94.14-68.43-188.3-136.82c-2-1.45-3.23-1.38-5.18,0q-94,68.36-188.09,136.61c-.78.57-1.58,1.11-2.52,1.77l-24.75-18q-83.08-60.33-166.21-120.62c-2.26-1.63-2.71-2.94-1.83-5.63q35.87-109.92,71.6-219.89c.92-2.81.68-4.3-1.87-6.15q-94-68.06-188-136.28c-1.7-1.24-2-2.24-1.38-4.28q36.18-111.06,72.14-222.17c.8-2.47,1.84-3.22,4.42-3.21q115.72.1,231.43.13c3.18,0,4.41-1,5.38-4Q775.27,521.32,811.21,411C811.44,410.23,811.72,409.52,812.06,408.58ZM619.89,1003.51c-.37,1.15-.67,2.07-1,3Q583,1117,547.06,1227.53c-.69,2.12-.62,3.35,1.4,4.81q93.75,68,187.41,136.05c.91.66,1.86,1.28,2.84,1.94L931.81,1230,1125,1370.39l2.81-2q93.43-67.89,186.93-135.72c2.24-1.62,2.57-2.91,1.75-5.44q-34.38-105.37-68.59-210.78c-1.4-4.31-2.76-8.62-4.13-12.9,1-.74,1.76-1.34,2.54-1.91q94-68.32,188.09-136.61c2-1.44,2.38-2.62,1.61-5q-35.76-109.66-71.3-219.38c-1-3-2.29-3.91-5.41-3.91q-115.72.13-231.44.11c-2.14,0-3.44-.28-4.22-2.71q-33.76-104.34-67.69-208.62c-1.7-5.25-3.43-10.48-5.17-15.78h-3.4q-115.56,0-231.14-.08c-2.79,0-3.74.91-4.55,3.42Q776,523.24,740.22,633.34c-.85,2.63-1.92,3.56-4.78,3.55q-115.86-.14-231.72-.1c-2.21,0-3.63.17-4.47,2.79Q463.51,750,427.54,860.35c-.7,2.14-.31,3.21,1.5,4.52Q499.56,916,570,967.23Z"/><path class="cls-2" d="M1797.29,841.34a11.94,11.94,0,0,0-.61-2.84q-61.35-188.09-122.29-376.31c-1.18-3.63-2.63-5.45-5.21-6.22-.8-2.45-1.61-4.89-2.41-7.34-1.21-3.66-2.84-4.74-6.65-4.72l-4.69,0-15.62,11.57q-185.85.19-371.7.16a10.88,10.88,0,0,1-3.95-.52l-.31-.13-.27-.14-.26-.15-.27-.2a6.67,6.67,0,0,1-2.18-3.49q-57.91-179-116.11-357.86c-2.92-9-5.89-18-8.87-27.07h-5.83q-198.22,0-396.47-.13a8.13,8.13,0,0,0-5,1.22l.55,1.69A5.32,5.32,0,0,0,727,70.14L600.65,457.56,193.46,459.5,189,456.28a8.27,8.27,0,0,0-1.46,2.86C146.7,585.42,64,843.33,67.13,845.57q121,87.69,241.78,175.59c28.42,20.65,56.84,41.32,85.59,62.22l-.71,2.21,1.66,1.21h0l.36.26c-.64,2-1.14,3.56-1.65,5.13q-61.29,188.63-122.65,377.24l-1.3,1c.22.25.47.5.74.76l-.06.18c-1.18,3.63-1.07,5.74,2.4,8.25Q434.11,1596.16,594.75,1713c1.57,1.14,3.2,2.19,4.88,3.33l.25-.18,3.89-11.94c.42-.26.84-.55,1.28-.87q159.15-117.06,318.47-233.88l4.73,3.42,1.29-.94,331.34,240.8,2.39-1.71.76,2.32,4-2.86q160.29-116.45,320.66-232.8c3.83-2.78,4.41-5,3-9.34q-59-180.74-117.65-361.55c-2.4-7.39-4.73-14.79-7.08-22.12l1.72-1.3-4.26-13.1,308.74-228.78ZM1425.9,861.93,1244.4,996.42l2.51,7.7-1,.77c1.38,4.3,2.75,8.66,4.16,13q34.55,106.27,69.16,212.53c.83,2.56.49,3.86-1.76,5.5q-94.31,68.34-188.5,136.84c-.73.54-1.47,1.07-2.34,1.69l-.44-1.37-1.41,1L930,1232.54l-.76.55-2.78-2q-93.6,68.75-187.22,137.48c-.26.19-.5.36-.75.51l-2.29,7-.14.11c-1-.67-1.95-1.29-2.87-2q-94.47-68.61-189-137.18c-2-1.48-2.1-2.72-1.41-4.85l0-.11a6.16,6.16,0,0,1-.44-.45l.76-.56q36.11-110.86,72.1-221.76c.3-.92.6-1.85,1-3l-.21-.15h0l-1-.71.41-1.3-50.31-36.58Q494.1,915.94,423,864.35c-1.82-1.32-2.21-2.4-1.51-4.55q36.25-111.27,72.3-222.61a5,5,0,0,1,.86-1.68l2.61,1.89,239.37-1.14,74.27-227.74a3,3,0,0,1,1.24-.74l-.32-1a4.76,4.76,0,0,1,3-.72q116.52.15,233.06.08h3.43c1.75,5.34,3.5,10.62,5.21,15.91q34.17,105.17,68.25,210.37a3.93,3.93,0,0,0,1.29,2.05l.16.12.15.09.16.08.18.07a6.43,6.43,0,0,0,2.32.31q109.26-.06,218.51-.09l9.18-6.81h2.75c2.25,0,3.2.62,3.91,2.77l1.42,4.31c1.52.46,2.37,1.53,3.06,3.66q35.81,110.65,71.89,221.21a7.1,7.1,0,0,1,.36,1.67Z"/><line class="cls-2" x1="193.46" y1="459.5" x2="494.68" y2="635.51"/><line class="cls-2" x1="421.52" y1="855.89" x2="67.13" y2="845.57"/><line class="cls-2" x1="544.22" y1="1237.06" x2="273.29" y2="1479.59"/><line class="cls-2" x1="603.77" y1="1704.17" x2="733.19" y2="1374.24"/><line class="cls-2" x1="1260.88" y1="1712.7" x2="1128.96" y2="1372.76"/><line class="cls-2" x1="1591.66" y1="1468.31" x2="1319.22" y2="1230.42"/><line class="cls-2" x1="1773.13" y1="841.46" x2="1439.74" y2="860.19"/><line class="cls-2" x1="1669.18" y1="455.97" x2="1364.79" y2="635.32"/><line class="cls-2" x1="1130.06" y1="66.11" x2="1051.3" y2="406.15"/><line class="cls-2" x1="726.99" y1="70.14" x2="810.93" y2="408.52"/><polyline class="cls-2" points="1124.76 632.43 1188.12 547.99 1260.87 451.04"/><polyline class="cls-2" points="615.06 1005.45 512.16 1042.41 394.5 1083.38"/><polyline class="cls-2" points="930.1 1232.54 930 1344.1 928.25 1472.84"/><polyline class="cls-2" points="1244.4 996.42 1347.72 1033.37 1468.65 1083.34"/><polyline class="cls-2" points="600.65 457.56 673.35 553.08 736.66 636.26"/></g></g></svg>