<svg xmlns="http://www.w3.org/2000/svg" viewBox="0 0 1891.15 1806.06"><defs><style>.cls-1{fill:#ed225d;stroke:#c0eeff;stroke-miterlimit:10;stroke-width:64px;}</style></defs><title>Asset 46</title><g id="Layer_2" data-name="Layer 2"><g id="Layer_3" data-name="Layer 3"><path class="cls-1" d="M945.72,1545.35c-5.79,4.13-11,7.74-16.05,11.44q-140.56,102.14-281.11,204.3c-9.25,6.72-18.72,12.35-30.73,12.91-13,.6-24.05-3.42-34.35-11-25.75-18.91-51.67-37.61-77.52-56.39Q384.37,1618.29,262.79,1530c-2.43-1.76-4.88-3.49-7.19-5.39-17.06-14-22.63-31.8-16.33-52.68,7.88-26.1,16.62-51.94,25-77.87q43.32-133.3,86.67-266.58c1.21-3.75,2.11-7.61,3.28-11.88-3.42-2.61-6.5-5.06-9.69-7.38Q200.4,1003.38,56.13,898.7C44,889.9,35.35,879.33,32.59,864.29c-1.82-9.95.87-19.14,3.85-28.34q28.5-87.76,57-175.52,33-101.52,66-203C162.8,447,167.73,437.86,176.5,431c7-5.47,14.67-9.09,23.65-9.5,5.65-.26,11.31-.56,17-.56q173.81-.06,347.62,0H580c1.84-5.11,3.51-9.39,4.93-13.75q54.9-168.89,109.66-337.79c5.71-17.65,15.55-30.92,34.11-35.75,5.68-1.47,11.83-1.55,17.77-1.57q88.41-.15,176.81-.06h219.76c31.27,0,44.79,9.77,54.37,39.27l109.71,337.77c.41,1.27.74,2.56,1.18,3.81,2.73,7.8,2.73,7.82,11.4,8,3.33.08,6.66,0,10,0h342.63c4.32,0,8.66-.08,13,.11,23.67,1,38.41,11.91,46,34.47,9.29,27.75,18.26,55.61,27.3,83.44Q1806.55,686.47,1854.4,834c1.84,5.67,3.78,11.47,4.42,17.35,2.13,19.71-5.94,34.67-21.9,46.15-38.37,27.6-76.53,55.5-114.76,83.28q-88.07,64-176.11,128c-2.92,2.13-5.73,4.41-8.91,6.87,1,3.51,1.72,6.7,2.72,9.8q55,169.36,110,338.73c2.14,6.6,4.36,13.45,4.75,20.28,1,18.12-7.29,32-21.73,42.44q-37.58,27.28-75.11,54.61-124,90.1-248,180.2c-8.71,6.33-17.71,11.51-28.92,12.23-13.32.85-24.73-3.2-35.35-11-31.14-22.83-62.45-45.44-93.68-68.13L955.5,1552.19C952.56,1550.06,949.55,1548,945.72,1545.35ZM680.9,1514.46c3-2.07,5.38-3.71,7.74-5.42q87.26-63.39,174.5-126.81c19.82-14.4,39.56-28.91,59.52-43.11,15.15-10.78,30.7-10.63,46-.1,2.41,1.66,4.75,3.43,7.12,5.15q113.43,82.41,226.87,164.82c2.54,1.85,5.17,3.58,8,5.56l220-159.86c-.78-3-1.28-5.26-2-7.5q-20.2-62.25-40.48-124.48-24.18-74.39-48.32-148.77c-2.48-7.64-4.31-15.27-2.63-23.49,2.4-11.77,9.58-19.72,19-26.53q115.47-83.68,230.77-167.6c1.51-1.1,2.94-2.31,4.52-3.29,2.49-1.54,2.82-3.67,2-6.21q-.75-2.28-1.48-4.56-39.35-121.07-78.69-242.13c-.9-2.75-2.05-5.42-3.31-8.71h-10.49q-141.85,0-283.71,0a60.53,60.53,0,0,1-11.91-.7c-16.25-3.28-25.6-13.67-30.61-29.18Q1129.36,425.2,1085,289c-2.93-9-3-9-12.09-9q-127.06,0-254.14,0c-9.29,0-9.3,0-12.16,8.83q-36,110.83-72,221.65c-5.83,18-11.6,35.95-17.56,53.87-4.75,14.31-14.5,23.34-29.38,26.29a65.5,65.5,0,0,1-12.7.78q-142.24.06-284.5.06c-9.9,0-9.11-1.37-12.56,9.24q-39.48,121.45-79,242.88c-.73,2.23-1.22,4.54-1.92,7.2,2.71,2.05,5.21,4,7.77,5.85l229.42,166.73c2.59,1.88,5.19,3.75,7.6,5.84,8.3,7.2,13.12,16.36,12.56,27.34a83.38,83.38,0,0,1-4.14,21q-43.32,134-87,268c-.57,1.77-1.12,3.55-1.68,5.33a4.78,4.78,0,0,0,2.24,6.14c1.35.83,2.58,1.88,3.87,2.81L673.12,1509.1C675.48,1510.81,677.91,1512.4,680.9,1514.46Z"/></g></g></svg>