<svg xmlns="http://www.w3.org/2000/svg" viewBox="0 0 2032.1 1932.62"><defs><style>.cls-1{fill:#ed225d;stroke:#c0eeff;stroke-miterlimit:10;stroke-width:128px;}</style></defs><title>Asset 45</title><g id="Layer_2" data-name="Layer 2"><g id="Layer_3" data-name="Layer 3"><path class="cls-1" d="M1956.86,929.4C1905.08,770,1853.64,611.7,1802.06,453H1392.9L1266.45,64H766c-1.17,3.17-2.4,6.22-3.41,9.34q-26.2,80.64-52.36,161.3Q676.3,339,642.35,443.36c-3.14,9.66-3.2,9.65-13.06,9.72-2.33,0-4.66,0-7,0H230Q152.48,691.65,75.24,929.41L406,1169.66c-1.64,5.48-3,10.24-4.48,14.93q-59.19,182.16-118.4,364.31c-3.29,10.11-3.28,10.14,5.12,16.25Q482.05,1706,675.93,1846.92c2.92,2.12,5.93,4.1,9.29,6.41l330.84-240.45,331,240.63,405.15-294.44-126.41-389.19Z"/></g></g></svg>