<svg xmlns="http://www.w3.org/2000/svg" viewBox="0 0 1743.5 1663.84"><defs><style>.cls-1,.cls-2{fill:#ed225d;}.cls-1{stroke:#000;}.cls-1,.cls-2,.cls-3{stroke-miterlimit:10;stroke-width:8px;}.cls-2,.cls-3{stroke:#fff;}.cls-2{opacity:0.9;}.cls-3{fill:#c0eeff;opacity:0.5;}</style></defs><title>Asset 19</title><g id="Layer_2" data-name="Layer 2"><g id="Layer_3" data-name="Layer 3"><path class="cls-1" d="M666.44,5.11h5.94q199.5,0,399-.11c4.55,0,6.53,1.15,8,5.66Q1140.4,199.36,1201.64,388c1.7,5.26,4,6.71,9.31,6.7q198-.23,396-.27c5.37,0,7.3,1.75,8.86,6.58q61.32,189.42,123,378.7c1.51,4.62.56,6.86-3.3,9.66q-160.66,116.36-321.21,232.89c-4.07,3-4.86,5.32-3.31,10.1q61.74,189.27,123.27,378.62c1.29,3.93.5,5.72-2.7,8q-162.43,117.75-324.66,235.78c-3.1,2.26-4.91,1.72-7.65-.27q-161.48-117.36-323-234.68c-3.43-2.5-5.55-2.37-8.9.06Q706.14,1537.2,544.74,1654.26c-1.34,1-2.71,1.9-4.32,3L498,1626.49Q355.45,1523,212.86,1419.59c-3.87-2.8-4.65-5-3.14-9.65q61.53-188.55,122.83-377.19c1.57-4.82,1.16-7.37-3.22-10.54Q168,905.45,6.91,788.44c-2.92-2.12-3.5-3.84-2.36-7.34Q66.59,590.62,128.29,400c1.37-4.24,3.14-5.52,7.58-5.51q198.48.19,397,.23c5.44,0,7.56-1.63,9.23-6.8Q603.33,198.49,665,9.2C665.39,8,665.86,6.72,666.44,5.11ZM336.81,1025.59c-.64,2-1.14,3.56-1.65,5.14q-61.61,189.58-123.27,379.14c-1.18,3.62-1.07,5.74,2.4,8.24q160.82,116.57,321.46,233.37c1.57,1.14,3.2,2.2,4.88,3.34l331.23-240.71,331.33,240.8,4.82-3.46q160.29-116.45,320.66-232.8c3.83-2.78,4.41-5,3-9.34q-59-180.74-117.65-361.55c-2.4-7.39-4.73-14.79-7.08-22.12,1.7-1.28,3-2.3,4.35-3.27Q1572.57,905.16,1733.92,788c3.42-2.48,4.07-4.51,2.76-8.54q-61.35-188.09-122.29-376.31c-1.69-5.21-4-6.7-9.3-6.7q-198.49.24-397,.18c-3.67,0-5.9-.47-7.24-4.63q-57.91-179-116.11-357.86c-2.92-9-5.89-18-8.87-27.07h-5.83Q871.84,7.11,673.59,7c-4.8,0-6.42,1.57-7.82,5.87Q604.59,201.78,543.21,390.64c-1.46,4.52-3.29,6.1-8.19,6.1q-198.73-.24-397.47-.18c-3.8,0-6.23.3-7.68,4.79q-61.29,189.42-123,378.7c-1.2,3.66-.52,5.49,2.57,7.73q121,87.69,241.78,175.59C279.64,984,308.06,1004.69,336.81,1025.59Z"/><path class="cls-2" d="M1735.68,779.5q-61.35-188.09-122.29-376.31c-1.69-5.21-4-6.7-9.3-6.7q-198.49.24-397,.18c-2.24,0-3.93-.18-5.23-1.25L129.17,400.51q-.15.39-.3.84-61.29,189.42-123,378.7c-1.2,3.66-.52,5.49,2.57,7.73l3.79,2.75,1724.06-8.19A12,12,0,0,0,1735.68,779.5Z"/><path class="cls-3" d="M1410.28,1022.37Q1571.57,905.16,1732.92,788a8.52,8.52,0,0,0,2.95-3.17L15.69,793.05Q133,878.12,250.22,963.37c28.42,20.65,56.84,41.32,85.59,62.22l-1.25,3.9,1073-5.1C1408.54,1023.66,1409.41,1023,1410.28,1022.37Z"/><path class="cls-3" d="M217.07,1423q160.73,115.37,321.2,231.07c4.45,3.21,7.15,3.07,11.46-.1q159.9-117.6,320-235c1.81-1.33,3.28-2.19,5-2.08l861.89-638.67c-.07-.27-.15-.55-.25-.85q-62.62-189-124.84-378.09c-1.21-3.66-2.84-4.74-6.65-4.72l-4.69,0L214.89,1421.06A11.9,11.9,0,0,0,217.07,1423Z"/><path class="cls-2" d="M335.76,1034.69q-60.7,189.91-121.52,379.79a8.54,8.54,0,0,0-.5,4.29L1595.84,394.63q-144.93.81-289.85,1.41c-35.14.16-70.27.3-105.82.45-.49-1.46-.9-2.69-1.29-3.88L336.74,1031.46C336.4,1032.62,336.09,1033.67,335.76,1034.69Z"/><path class="cls-2" d="M1199.87,392q-57.91-179-116.11-357.86c-2.92-9-5.89-18-8.87-27.07h-5.83Q870.84,7.11,672.59,7a8.13,8.13,0,0,0-5,1.22L1203,1654.31l4-2.86q160.29-116.45,320.66-232.8c3.83-2.78,4.41-5,3-9.34q-59-180.74-117.65-361.55c-2.4-7.39-4.73-14.79-7.08-22.12l1.72-1.3L1203.33,396.22C1201.78,395.68,1200.67,394.51,1199.87,392Z"/><path class="cls-3" d="M664.77,12.85Q603.59,201.78,542.21,390.64a11.51,11.51,0,0,1-1.89,3.85l332,1020.72,327.7,238.15L665.67,10.58A17.89,17.89,0,0,0,664.77,12.85Z"/></g></g></svg>